<mxfile host="app.diagrams.net" agent="Mozilla/5.0 (X11; Linux x86_64) AppleWebKit/537.36 (KHTML, like Gecko) Chrome/133.0.0.0 Safari/537.36" version="26.0.16">
  <diagram name="Page-1" id="J6ol1uUs2ajsF1uJNtTl">
    <mxGraphModel dx="1434" dy="761" grid="0" gridSize="10" guides="1" tooltips="1" connect="1" arrows="1" fold="1" page="1" pageScale="1" pageWidth="850" pageHeight="1100" math="0" shadow="0">
      <root>
        <mxCell id="0" />
        <mxCell id="1" parent="0" />
        <mxCell id="2tirW4YySyGKOFdSVdBK-1" value="" style="rounded=0;whiteSpace=wrap;html=1;strokeColor=default;dashed=1;" vertex="1" parent="1">
          <mxGeometry x="210" y="180" width="550" height="250" as="geometry" />
        </mxCell>
        <mxCell id="2tirW4YySyGKOFdSVdBK-2" value="" style="shape=image;verticalLabelPosition=bottom;labelBackgroundColor=default;verticalAlign=top;aspect=fixed;imageAspect=0;image=data:image/png,iVBORw0KGgoAAAANSUhEUgAAADMAAAAyCAIAAAB+n3TYAAAAA3NCSVQICAjb4U/gAAANjElEQVRYR+1YaZBU13W+y9t6n+6ZpmdjYGYYITxIiEUEa8SijYCMFexI2JYKW1WxU6o4lcTJn/xUVcrlH0mlKnESJX8SxSlbJdsSVoRlyiKAhBAEUWIRYhHbMNDTs/U63a/fcpec2w1MM8wwg12u0o/c6arpfu++e757zne+c+7DUkr0uRzkc4lKgfp/ZPceGu3eH2l8AjiKa79vsBV+qEt16mL4D98EVnPuOTi/FTKBJFYfwMU9jgoVwZmwDBE2TZ0SQX2MdIUOA7h7Zs5vg0xiyRDSHC7yZe/0Zb7rV2OFKupoJn+wJdXXgeJBUyMcS4IwEfBX8+b8Q4R/Y9WQQnquKDLv4En7nX2la0VsCyzpJJFaiAZ7mvxvbE3et8SKWcjQiMQUAN4DLkWJ+eiZCptEmGNEODzDsc9kzmN7j+UPfOgMTlBfMqz4RCgzJWHgKJhkUr+3lW4dSK57APAxjZoEEazgwV1RYyP8mBXtvJBJ6QKFBdJgF8wXWdvd/3Hp3cPO1ZwtuYnBH3CdSCKwjoinNnBjCCx04vem0OZHUgP9wXiI6poEcMDBWlZAfOFDZwzxvJAJQCSA43x0Eu0/lt9ztJTJBYn0YNOQerA6bJ9jM0ydnlZ8eUzYvl43BuziiAJknXidSbF5XXzTilhLBGtUUqTX0gf495siA1ge88craPeB/AfHnMwkZqAAklMgGtIQhiSA30Igum4J/8sXF//w9bHDpyErVKiowJzANDAvODEpt7oS5Q0PG5sHWpMhbFAIJvBv5jF7bqpsBzVg6aL42YHskZPVsSIFvlEsNAgSEA7DpgWF4EhMpC5olYpASCv7jEMmAIuwNBjx4Z9KT6lThrhWulQg137N/ufo0MCqyFc3xlIRhgg4eAZ4M1xq2AKbtNF/7Rr/5UF3vAQ+BwvAC6AT7BW+c5MBJvgOlBcepaUqdfzgZLEK/IEslditcYmo2VhATInQNEmk1DIF460DxX/8z2s5G5adOQlmRVaTcTmYq54YqjKpCQhqXdmngENEfZdoPlZJl8C8PVnVdNzdBpmokoKrGjCzVYGrjiRnrgdPXnZnWlnZmDWaitVSDl73ShUCVupKD8rOBSxVtwfXSdy01y7VNq1KLmpNNcWwZeDvfq3thSq7MuwfPuq9f2ay7Mgb08F/GGmU+JxBcGEJ26+cOCU29QcJ2FKZBG6a2smsyEAkbJ9/NsQdoDioE8IdTeLPdiQvXK3++4FJ5GKD4DVL6c4tC3o6lT2YA/IBgSMabo1oqaV8TV/06ZHA678qHTnrONI3TLRjfWR5Z+Sfd4+nx1VFA4pduObYnh8xNODvNPfOigzQVzySyXpqL7BrImGvFc/b9mhE98Tbx91HV5KdTyWDllN2zGNn7VOX82v6ggMrFnxwMn9x0Lu/O9DfR5emrL/Yab2+J3P8NH1iTeiJLwZPXKkyx0NIh/Uh1iUX5W0UNoCZSsYbs3RWZJCGuZIYK4CfNazEU+ZLoX/6ceGRVcWvP5l6/Kl4rOajI5fJq28MpicMn8tliy2EeLos3zjioUPu4mT1pa8sWrpY+9bTrTu2+pWK+Om+wu4jtu3dEjBc8Wh63F8Yh/QEuIFGZHfLgEzWL1RAOSDngSGcETsr0IGPtZ/vH20xfGKiC9fL//KTwc/GQhXBEEMRC1bzoxrIq2NzOTga+IfXhi9nqhbBMaLtP5J742jVdZlskNaqTy4NuUhCYIA0t6XYrMhg9tW0cHwX6oikHpYaiDUIGqjPY6taMLGoEH0Lw995rqur2SYigLBlmhRLK2xRRpWb21v4d55v6221OFglsndhNGxAhhsUpPfm8Dk/fbbiq1bqNofB/VmRVT1yddjmqgYqza0vBUTvauX3dehlV75+KGczPrAk/P0/7n78IZQIlsJhlQHxGF2giy+vDP3Nn3StWURLHnrj/Wy2yPt7A8u7dEkZI1NGoY5kil7JASN0mijNyrPcpBga8QXkDOK1pkANnaJ1y0I6xf97pvraHv/S5fxLz0Y7E8af7mgZn0x2NqtZ4MiX/9xKhVFAJxMV799+Xj5x2WlLemvvNx/qMY6dF1WVVDcHxllXz0yw5k4opUq1b92502dcdc5Sjuar+YqSfZhbe0BdNQ208v6AJ9h7H41WHO/gucrfvjoxUpBxQ1/SbFiEu1yaxO6JGSFDTlT43/+o+OG5XK4aeO8YiIPW0xEM6joBCbpFKSkdoQ2mK3fq+HRkArkStJTzi8NOmXmQkmojKppKbMFbyTCkIb2W0cGRrqufvore3n+l1rDyQ6e8H/xH5uAJxkBhuP6jXVdOpws215C0B0cd2xGJJjNsOdBNTflMYsa84+dsjj1oLaeuT68BKtSQwNiV8vqo5/uK/ZA1ULXhIvQyBog4bJlD7Ssno9qSTn1Zd2DdsjiURAexn+ybOJsRBVus6g9HMd26sT2Rcs5fqV4Z5h6jnAtDw6YONWuKUWrbjA8Os4qvNakCO4Xtdp6pG0rwylVxLcOUXtzo7GAtqWFuUI9Qael45zPJ9mSoNaEHdGlAt4Wg8aBrl4TdsrOiBy5wpOlfWBToa9cdN5bO8+GcHQ3Sqg+05QQ60JsA4AvU+mxFG5tkMVNrdNq0DKhxUKLxAh8t+NBWKFdhnIii7g69q8Xs724OmMjU5CMPxhHzPE7yk17Bkc1R0RLUnn2iacMa2RrTLSJHin6x6AeDWsRC3Qt4X1sIKphG0Y4nW49+mhvJi+GsNj4pCCgZli6jQ8NuX4vRqBXTcxO6G2DMUAZqTn0DUtfxs+ubNzxk+Vxki9WJomhPkMyI9/bB4kQBQeddqoS/9iTZtq4pHNQDwbqM8r2Hc3s/8gKGjDaRtijdtj7W28EKFU6w/9SjyURAnrnqvvLmSNmJIcIYR2fO5x57MNrY3U5DpnJQ9V4qpDdcLrj86MJkulg9P2SPF9Cytom//uZiM6gdvmCP5KTAxCSV5kQcUqRYwacuTay8ryWsk55Fwex7zmQOsXG/J+Zu2xhxfPLOobE9h5gRyn5hcRgzDHksCXCZEGh2Ayo+jRkwLTfrHQvt7wn2tiuyw2woiB+fr+4+WL4wiAsF7dSQ8dl1JxYiW9YSYDTkSO8CtnxxUGB64OPiD386/t4nBSb8vk6zOcgIJQmibxuIdsStTM478qk/4bHhHHr3RHnvKbfsQ2PHAVlz2Nm4egFVjdDUmK4a9RRIxfRvbGlrj4H3ILiqbsqaDgoM7Ybz41+MVxyxfaBz4wozZPEtA/GgIa/n/Z/ty2UrTW/uL2ertMnSN30xFAt7T6w2n1wbYoL/9/5cegLKG5zaTc0PQkgoaADRwwG0c0uqO6U0oREZffnllxt+1w6AEEqCm6NaKOyfu8SgQsEz9SIA9wgLFtX5gy3vNVYtDeuIb1zRFLLwW3BWOMukoPmqjAa8/kWB1lSwJUi3bwyb1Pz1sfI7h0uTbi1kmAkCH3i3QEM6fnrAeGZ9IgDl5fYObQaf1YEGNL5+efzph8MhCmy45WdwnFeQ/lvv818cKEMv+sLmZGtcs1125oITiWjxsEhEyMWLqgK1R+j2RwMaIvuOF1/bW56oGuB+cD7oj/ogHXry1b34ucdbQjp0ubc5TIXuzrJQR6auS5kt81d2jR78xPdUZwtDCRscjbAwLJ0PPKh976ttwRCSPp5w3UmHMpcbJo0GKHREBkEu46/uGd/9oSx7Vegw4OQJFjkIEWIG0pa187/6dvvCmElV2imBaoje7OeAelibIvSbW1vGJ4Y+vW5w6auSAIVRiRBgwMfP+OObGa1i18OJiN4SEDQAdBEeEkNZOIaLaAh9dM4ueTqVPlV+Avsg1eqYnmpi336ufWETdJ8K1FQlvYluup41oobvcIJtazFffKbj715NX7cD6lSrjr5qLcjc1Q8ErZD8wb+mz49oTWEciaAA0QRjBdvNlQnQ//sv9Ty2MjL6rl1xI5DlN72OwE3PPxVfuhBAmTctTo/mrDyrPwAFwCCif5H5R3+Yajagb6zDUtCawuTrj4WGLomLaQovzkaK4kLa/+Ra5UxapPNQiKzxknnyUnHT6lh3JzgKYNV9I4Ka+PJ6a+Nq08QGVvucecyOTO0BKhXEhIJurV0W+MomSCDVF0NEgROGobmS7jqaK2pVXcAdSQWkBJxmYDvwXogLpu/5wC4WRchUMlo78mPoVn7vgcD2DXHo3oAw0C7PjAtsz5YBtz2gkkGOVZxX3sx+cAJ5uCKFpWHfMjTHgzca9TZpBhOwM8ukni9AZtR+CF6xUH7vhc7FC6BrmWPM7rPGB2svnppDxre+lLqv09d4DEPXww04aCs235Hwtx4F30JbVoOletBFCf7i9kRXs6otc475IVNvNBElpCuBvrsj1RYqURFCtFLr3uYYdfmEMMcN8fzm1ANdMVhnjmdqt+cbTXjdBJOhQ2RMnMqUX9uTz4wxAV3MfIwgCa9st22I/P7DkaAGHARoc3ttfsgazUOThKB5R74Axa3lw91GHQGUXxyk2h1vCO765LwyYPoKvFYh6t3xXZHVKQjwYBacwu5lzKG0My0FRlS+q5Sfa1uN9ebecE0/ocwE5I5rgOwGhcHYXPYaPTrX3Nst3TvP7kD6O7owrwT+Hdm++7KfX2T/BxpSnRKOIKeHAAAAAElFTkSuQmCC;" vertex="1" parent="1">
          <mxGeometry x="220" y="190" width="51" height="50" as="geometry" />
        </mxCell>
        <mxCell id="2tirW4YySyGKOFdSVdBK-3" value="&lt;b&gt;Hub Cluster&lt;/b&gt;" style="text;html=1;align=center;verticalAlign=middle;whiteSpace=wrap;rounded=0;" vertex="1" parent="1">
          <mxGeometry x="271" y="200" width="60" height="30" as="geometry" />
        </mxCell>
        <mxCell id="2tirW4YySyGKOFdSVdBK-4" value="&lt;br&gt;&lt;br&gt;&lt;span style=&quot;background-color: transparent; color: light-dark(rgb(0, 0, 0), rgb(255, 255, 255));&quot;&gt;Registration Controller&lt;/span&gt;&lt;br&gt;&lt;span style=&quot;background-color: transparent; color: light-dark(rgb(0, 0, 0), rgb(255, 255, 255));&quot;&gt;Placement Controller&lt;/span&gt;&lt;br&gt;&lt;span style=&quot;background-color: transparent; color: light-dark(rgb(0, 0, 0), rgb(255, 255, 255));&quot;&gt;Add-On Manager&lt;/span&gt;" style="rounded=1;whiteSpace=wrap;html=1;" vertex="1" parent="1">
          <mxGeometry x="240" y="250" width="160" height="130" as="geometry" />
        </mxCell>
        <mxCell id="2tirW4YySyGKOFdSVdBK-6" value="" style="shape=image;verticalLabelPosition=bottom;labelBackgroundColor=default;verticalAlign=top;aspect=fixed;imageAspect=0;image=data:image/png,iVBORw0KGgoAAAANSUhEUgAAACoAAAAoCAIAAAAHaf8HAAAAA3NCSVQICAjb4U/gAAAH3UlEQVRYR+VXS2xU1xm+53FfM57x2B6/CTa2IbikqV2SFMIjKQ2Jkw0kUYPaSl22ahbdJF2ky7aLbrpvlU2kqmqlSFmkVSNQqQI0EDUlVoCAAb+xMX7Nw/O4c1/n9DtjwNhcYwOLLnp0NLozc+/5/v/7v/9xiZRS+98t/jjQsFyGmkY0QjVCHuWkR4SvAksnE85+6VFJG/sNu4FSHPaQRpCHJl9qQsjyoj9xujB1puLOU86MRKvVvs9o2cPtNAETmzfi4eAlgDPe2L8ywyeypZuSaobOTINbnJuGYSS36K37WeMzxKxT4djM2iw82C5nK2NnZy99PJ0bD6g0dG4Cm3NL55aBa25ypusGT2ylLftIQ79m1G5sxCbgpeYU3OGzU4MfXp+9UmS0CsksDmzl+u2vug47lAWUUsa1RIfWepCk+4he86BYbCA9t+QNn5s49+cLU4MLjCg8jZHl8EoJ0xXBQl2Aa2yGC0a1UGjZYZkf05JnSPshlv4W4XZ0KNaFhySX5gof/eb41U9HidQpMTQGZKp26CuPFCpUKEKBBVVgE8E1BgOqeUgCsniVZEfD+l7W+2NmN0ZkxbrwIhBfHf/6wolLROMcoIyFMqQiDEkAR+E3tUis2YinwDYLSr6XFaEbBmGo4JkyE1bAVhqw+a9lzT+1HccisCJ+WqYJTo1/NeH7PqdUEuUhvBZEEBLaSdp7aEvf0e5Ek81NhvtDTxbn/WvHs5Pnck6BcCQjZYxxxnRGOajJjmmhq0K3Zq0LH/jhjSvTAlYQRS1FiBW9oqkzMfCL72z5ZiPSDe7dTnGpxer0+g6rY1/h7B/G8+M+ioHSphKjiceK88QrGLa5Nh3Xfl+2Dg8sTi3m5rJSBhLlrbo0Taa31R799YGO3S1GTAfDK+UFl4zoMdben3zx3a741qDs5h234EK6vuMFbnHBr+TEWt+rco1YoHpmeKaUL8IOrQqN882EOfDOnubt9Uiu9eoa+Ei2GF0vpjy55PoFNygvw1fKlcyodz9SNPmgfPrqtFtyOLOBr2RMSe93t3U+06awo1boh/m5/PV/j10+OYryIAMLEhBUFxSaZb5H5q+53S/H1jy6LvyNoRsqnyg4R8JQxG330Z16VWj3Lyh+ZHDk/CfnhUeautM79vQk6pOmZRGqh2WSGfFvfulmxp2gkuLWqvSLhg+8YGroBvxWSCgzhNa1Jtt3NYOD+7GXb2npannt7dcMy4DekXrIODyGv6TQ/P3Cqs2MnSo52SDRqt97QgQ8nJ6fnMvP5/G0glbHwKcGbkTTjuOAl0wnIy0TmvRKwc0LhUo+LC1uBj4UE5cmvLKn1EypFbe27mzb9b1uXEcCRP8otdAXzpI/+UV26JNMZjhkzMiMuC1PrSq/Ud4HYvLyBPg3TWv7c90HfvB8z7Ndiaa4yrRNrzAQ107PDH44uTQtwrKO7KdEzg+52pFVR0TAQ0cz12cQ767+bcd+9XrbjhbVRh5yhZ4Y/3zu1uUiJ5gGlHo0QbITKAGSmytuRMAHfnBrdBZUN3c31belhKo6dyoGIolpJ5B+WTUVux7RibbLKwf5mz4l6AjYaBqq/vsFWV4Iku0r6ouCd/1yvoyCc/nU0F9/d7z9yS12TYxRg0geOjRwOAm4lbBa+2wrpY69Hx/PLs24pVshpyi9quxXLWDoWV5x1WAdAW/GrNbutrHBiexM7tQfz8bitRYKnp4wjWRDa9MTT7V2Ppdu3x23Uzg2AhvW+I4YPZPxltB50HUMbNCAFhSr10HYveZGcGfYxqs/ezXZWIv7oAO37DpFp1J03LLTO9B08Oed2w+n4ml0tWhshGZ2qDh+ZokRo9pyDEYhPRBm9B5NxNIbwXOD9x3ue+GHB3SLo98IGQjhB8L1/crFv48szZVUI1hnATs35Z7/YLaSJdVpTLmuZkBT79gf7zxgr3kdiPAeJ2NuG3h74Mm92zWCAQPYXhh6fuDMXJ/96L3PZq/moKw1RqjqVhGLI86nv53MDHvKY/ihsA1u6Okd1q63atg9ml+2f91RE7Vv6sr073/6/sJ4jjNL12M6tw0eM/V4sqGu96XOZ4/1xOstVCY4JEKtkguu/G1h7PRSJScx/yitqaEDfVmP1fG97ybSO1eV2w3glwP/xcf/+dMv/+IWQ1jAddtgtqHHYYRhxmPJRENbqqYhBll5yKj5MHBQ4u8CA16lnBnXn/5RfNvLFo3qVhHKvxtWyLZ/oG/84uQ/3j/pYeyodv7qJ4IvRFa4BQ8TN6tO3MpR5a5KRDWHVHuFbtAnnje3vmBGYgPoQfD4G1nwyk9emrg4NvTZNQkN4I1SbTX5YAy4Y6gqampLDNq3SSUaIkBSXfrO1209Fp0juDVaencJwMGpltSb772RbI75oeP7Rc8veQG24wflIHCQmCGEKXwB0avX3eWsUBOK3cC+8f1YvCWK9DsAG8DjNljQ1dd15J0jzJAKFfB+GdgerAkroYJ3kZnIz+pUiLIsNBTImNYzEGt+2liTaXcdW77YGF5RxOiBtw7ufXMPYYEvgAdUeKycrn4GUqtiq6iojUi3fdvqORxfrzStsFsdYTe1MHme/ODE3EQGM61KRUza1Te96oumCQGiL0DtKHC17Xb3oVq7fgNhKWo3D4+7MYJGWbqirNtXSvUPerN8FO+jgB/3t03F/nFB1n/+/xv+v/7MybOos/TcAAAAAElFTkSuQmCC;" vertex="1" parent="1">
          <mxGeometry x="250" y="260" width="42" height="40" as="geometry" />
        </mxCell>
        <mxCell id="2tirW4YySyGKOFdSVdBK-7" value="&lt;b&gt;Cluster Manager&lt;/b&gt;" style="text;html=1;align=center;verticalAlign=middle;whiteSpace=wrap;rounded=0;" vertex="1" parent="1">
          <mxGeometry x="292" y="265" width="60" height="30" as="geometry" />
        </mxCell>
        <mxCell id="2tirW4YySyGKOFdSVdBK-9" value="&lt;br&gt;&lt;br&gt;&lt;br&gt;&lt;br&gt;Argo CD API&lt;br&gt;ApplicationSet Controller&lt;br&gt;&lt;b&gt;Argo CD Agent - Principal&lt;/b&gt;&lt;br&gt;&lt;div&gt;&lt;br&gt;&lt;/div&gt;" style="rounded=1;whiteSpace=wrap;html=1;" vertex="1" parent="1">
          <mxGeometry x="410" y="250" width="160" height="130" as="geometry" />
        </mxCell>
        <mxCell id="2tirW4YySyGKOFdSVdBK-10" value="" style="shape=image;verticalLabelPosition=bottom;labelBackgroundColor=default;verticalAlign=top;aspect=fixed;imageAspect=0;image=data:image/png,iVBORw0KGgoAAAANSUhEUgAAAG0AAAByCAIAAADWGshPAAAAA3NCSVQICAjb4U/gAAAgAElEQVR4Xu19eZAkV3nnl5VH3UdX33fP1RrNoUFokAZJaBBCh8E2wiDEYcLhMIpdm4g18uoPYxwORWws7C6BsXaJhUVGgEyYYBHMIiRxCZ0zSGIuHaNhZnqO7p6+7677yGN/L7O7OiszK6u6u7qbP3hRMVP18uU7fu+73ve+95rTNI3+kNaNgGfdNfyhAobAH3CsDx0I9amm3rVA2mjE4R9FI3wrkz0ccZh/DyMBjuM8+PF7kH6/cMwXtZys5YpqvihnilxBpkxRzRa1IuBcTgJPAs8FJY/k4bwCF/J5RJ4LiJxfBLhbxl5szrd8OnMFZS6rzaaVTE7Nylpe1kBlAEsSOZ4nr1hGc+huvqgqChWAr6zJqsZg1XH0e/nWsNAQ4LlNJ9ItxjGZUy/PFWYWlYLCJjQa4qNh3i96RAEsC7ZlLIxvqmmuAarO9Uv8DiizoNmMuphRcgUVmEb8fEOI74sJfmnzyHNrcASfJrLqxenibFoGWGEfH4vw0aAAnkWyCsRq/GIgjreA41xCnksqABdVbWuSumKCV/DwG4/nZuMI8TefVsYW5OmU7Pd6YiE+5OfxxYCvGmLVnwNTRdUW08piSknnVNKoq0FojwhRP7+hwnPzcAS9zKTkoTl5KiFHg4wAQz5eAP/qBFjfZKCZK2oLCXlqQfaLXEtU2NnI+6SN0qubh+Pro7mJeRmqo7vV65cg9DZJFxRkdWK2CGb3CdzeDl9bVJcd9U4bjiNURCKjnBiGMaO1x8XmmFjvIVSvD1MGuTk6U5AV6m0SdjWJXrHOaG4sjopKVxeKl6cKAjirQYwEeDsLQ//6PFxBgwVTERGzvtY1eMWSlR7glWxenZovQnQ2Bfldrd6ov57aZwNxVBTl7KQ8viDHwjwokefRlsMw417ODxxVmoNVqEMJ1PJQFsRsQ+MFy3sGjIKHKWov9EdtsKI06ptPyeMzRfD49hapK1o3cblROGYL6qnh3GJO7WoW42HRhYI6l+liMavMK5RRFJnZhww6J9hXZsJAD3IWugpQhpnNWZPKSmaVy2N5vLK73dsXr4+c2RAcM3n1jZHcfJaB2BQVHcmQJ03FCpooziuiiDLalVQxYxCkA9XWlCV6PCGBB0CMUisnPJQV7dxQDkS/t9PbHXOb5srVlD2pP475ovLWaGE+p3a3SI4CEcMI8hTkVNjgs/rCDiMvalqB8XIdEoAM8Dy4XrepnBOeYFk5OJGH6b6vy7d+Bq8/jicHM3M5rQsg+h10op9TfSKPFTDGt1jQhjIF1ZFcnYe/ilzgCDQhPSu9AygB4tBEAYbRNW3rZfCKzVRq3j3/9NXcRFJti4uOIAYELuZdAjEtaxPMFqoLCTp0CmSeLMoJuIwqJLTskzzb2r1QVgMThflMZXOhQg3m7LrhCJ68OFMYX5ShmhsjVj2IZiIcNYhQCJys0VBGGUjms1Wloa44OFX2yAUmTvGB51EucCq+6G4M14QpyqvqLHxwFQQGoMS6oLddwny+PZpLYR251lQ3vp5Nym+M5oMBvqdVYsM0JZHTYoImCQzcjKyNZ+UkDOLKSQPamiolZqTkrHf2qpiYErMJPpcBoLLg17xSIdyci3flG7sL0WZV9KKwu56G/PXzvB++IKdGMR3wFQ2O5Ttjnj0dfggEp1JV8qyEU6V4hcfweg1MF3iBA0dbOBUgwkozQEzk5bGcmrPAXFYnp3k8gYnLjedf9l057ksuCOl5kvMrRTABIDOPoEqRfGNjrrEz0X94sf9GVfS5mEkgx6zCXMFBw6FUPgp0GA6n5pgwsiA3hZWONRmV9aHHK7PFgclCT5sULtctYOdGUTVAnMsoIwUwUIWpgPktSEJ6setX34hceEkAXqpMHCoopw68DlJeEgiMu1VRLMTbJm//q9k9tzL2r5xQEagyWGFFqKralYl8OqveujMQ9q1a3NUBx0yu+MJAHvPZ0SRZRuETgCPrE0AczhcrjxEoqvHzr/Q8+3VKThDvdysJKIvMIVaW1MTidX869Ed/rQQijM0rJAalwAecGBzcPZeUob5bIsINPVipVqiiQvZ6cYRBe2okB6fszk6vKJRNI7QzFAvaBTsPZivJetYvMb3Q+tsj8dd+4CFep8FqCUBhNW6B0iNn2/pH73wg1Xudy/uGrASUjmWGJ/MLKeX6briFVifxaui0Y4PLmVMpZTapdDRLkk53pRSEiaODCMUCmejCzp5cpuvX32o6cQSGsw4iFtY2jCx9QCm7YagK/rGB7p9+OXLplOqpiIIhKyvNKlgKZjwEJfzNruO2PlwXjgVgNF/EujYWLHPkgEewNQIU0RloZxfFApnY+8zXImd+yVwIeAP/SAFq66ZYEymucgAdd2A93js30/vEF8Kj59yhXCw625Uwg5obhNmUnFilObkuHCH15jJqH0zZ8iFh2WesWEazipuJw3G9v/xG9OwzHK8LVoAYCtGBA9TTTf07qW+XddLNv9Ei9hIdkofPe7Z978Hg5GWHh8tZsP8dTXSYEjB+4ZqCu8+82etSlfFo7TiCNSYTzL/tFXW7eDkJcL3oA8SKZb6yboGR2PC7l2Mnj5AYLo2OdvavVNTYRIGIVQiuPIb1U5H1hKza9txjkBjm4pbvBVWFd85eAHzdEOank3KmULF++1vrwFGhqaQC36LFuRKROOzHq6o6lnFhTE5anGo68RPeMhLJqvFdrMKlsAr7mFiOFhp6PXbhmIvuBkiGj85eQUjfAb+66NJ/60trxxGbVqgMu33mKrEnB6cscqbzasbF3tbUyKUTgdFzZdoZBvHY5EptmQxlU1UWf46czarg+Fyh6dSvONkNC7CUo8IJSJ6Ajx+ZdXvXAuTacby6KAd8Hl+5mm7g2IJPVtQ0pEtltvAohYazRzm1fHXo4WlskMYnKJ+jxUW6cBZGpaW7q/nJBYZPBMYG3GcCdpu9m5CPYb8Hj+AuqLHFNeIITT2fUtCYZVMYHlk0nFK0lIulA2N4cig0fIIFO1kSBjV8iU6foPNvM8nooJGtb7j+5jteelwxlFiFcllEuNi6il5EgjzQHJqrlSRtI6nQniV7JMHiICBHzPmwGcHT6FVS1mx9WykIi6Tx7Eu688YJJ1AlrxuSTg+tvatSRgoM/tabmLG+Vf4bbnF7AQQVwWEBDxCCjexP7TlrxHE6IQMy+O9KXGGyGbX5yl4/9EDz8LE3f06e+myM2IdUlqOpDQPHXWxJFM4h5sqWMJzGCA/pmc7XG0dsoSCeZGCqODJfTGZVi0sClGEQR87VGYEOS4lZT2q8pvWfbXirzwiHhs64vwWcHE1F+ACRf2mmcGm6OJ/KG1tvlaqquH6yv5DJySeHc8iHoQM7tiVe9i68gMbifloGjTtwilEhzEb/AkCswpD21tecI01d9sB15JpgAEUhTEwJfBbwMssDUTQTi0U4jW/f5QkiNrBCWgVfI7ATlcCyMjCAxWNWddA4xpO0u4/Ww3sXp2CWVOhP/bP5zJTH1fpBk9jptTcMr5AReokhY81vDN9ezMhZBT2aq0DVaMOcY6BbLFbfcuGzaSYc4VfNe0jxkEErABbzE1CJdxhSpd6X5WvYAyyfHgG1qSRnarGf4EqxBxRAARRdyaLUgTXiCNRgtJTMO51CmZ0yr2EkDmK71B5fyAmJOZoRCRYSU9kIA9dFK1OaOhD4FVRIQn5N6BHgK3rYi4ymzHOAfAGzwsGCyWVUyetSHWQfdnL8MBXKk0/kFjStlvDeNeJoRCyWGoUgCevU6aT6VromLsy0vnAk/iqUtQApS+19FI2QL8J+ZhdoYYEmRymXpZREXoWwUyBUo01QdBZEDaLLKdEmvqWNfF7mUsvmKblIU6NU5MQpru/I14fuuD/fvRPe1kpoOkp0CZuJtaU14mjfDDIsckdbzOgJn0n1/Ph/h86d4rJJuv5WuvEw7dhL0QYSvYy281lamKOhC/Ta8/S704zlwe9BlcQKI8e4gWAOxQrU0k43v5+27aP2TvIFIMIpl6eFWRoaoFPH6PWjwbde7Z0YHPvEg8m+/Y46B23YrXF02+JUdYF0Ff5w2IyvDmZB5FDWzVGhp81b4mv0vE3f0xhIFh31DPyM+x97WHzzN4x5P/JXdPiDFAg5aG3QSzpJL/2MfvwoceB9lfG44zZfWgcRPsr+A/SJ/0hd25j1bkmoLZOiF5+mH30LZpbs8w089L/y0RZrMf231+OJlEeZYnJTWfXcMBsyVo+H+vzNtv3kUlWr0Neld5ggrJXe2UswvNufe0I88Rwb6oc/TXd9hIJh5ypQbyhCH7ifPvwAKTlwJeUh+GwDLyAf4hnRjDvor/+Benc5gIiXUBsauvuj9PH/QIIgZFI7Hvuv7ju05pZWtbhfC462YblmcJxv8mrTz75DviDd8B66/cMklFlhuVwunzftrBqVffB+uvNjTNwyvMonDbAWdB0HB+XnvkjRRnPzsiyn02l47VYyMXmH/5huuZN4UZgYajrxHGxY1x6v5aGNF2qrpDZjYKmu+JvHmMLwB+ju+xiBLCcYST/60Y+eeeaZQCBw3333HT58GESz0v5df0ZnT9H4MGVBpCaaVKDWOeYM//O/tYA4NDT06KOPXrlyZefOnQ888EBXV9dSbZKP7voonX7Fk1wMnzk2t/9mFWLUgc7LBr8qnlsLjkxEOqo3pzng0knp4mkOamT/TYwBTemb3/zml770pYVkEvT25JNPPvvss3v27Fl5HmukG2+jH3+H8hJTOCWizEAsKrTvAO241lzb4uLi5z//+aeeegpdQw9HR0e/8pWvRKPRpTItnXTz3fTU4/7xId/USKa3vxqMTCpkC242nLn1NVI4/GZOoGFbprxCjpPSSV86BbuE3v0+s0xMpVLHjh1jIKK/HLeQSBw5cqSsTvBj904KhZlEM7M2MzoV2rmHqWZTmpiY+H9PPsmMaY8Hoz99+vTFixdXnqOVQ7dCL0mphG92rEYpWXkn3Dr6NeIIK6HMFEN0t8zWJfYddim9KGWSrNm+ndbGAYiJsMHm1gKRBgo3sExzY+BrQaKGFio3m5mQXQ7k1d+wzXRrL/lChIVAcs7OUI6hp3mEW9eW1ogjDkzpATNLCVyX048gIzrU0i6vqfiwTLEsSiIYDN5zzz1Bv1+RZXy6Ozvvvfdea59FCXqWZZbgNtqEvPMHLRq/p6fnnrvvRigVakNXbrrpJkjJsgqBO95SVb6QMULXSk8hM+z74XgKNeCIr7WfICB7Vi05sKcQAQrXmTHrGJ2iCzA9eqbMuSIj0I6tV6wJ7Hz//fdj8D/4wQ+8Xu+nP/3p/fv3WwspsnWFZEhJez4RROEjjzyC2k6cOHHnnXdiVlaEY6neHKbbI3vDFlc8OoPdOWvr7EAoVp01JfsAa3oNhbLlLkiDYtAhGLRYq5Zqkf1B2ReAg5sGL9J1B821A7736qlik4l5SiXYBLGt6mXyhyMDG6oz4wxi0xY2mu7u7n7ooYfcasssUCAmByJ208eOV76g4ahIxdrKHzhMQqU3WQC7figDA8I3dnrPlCAwDfTi5lOmkJvhWAFiDnF1p47WKN2XagVMVy9TapHxr3mrGi4c5AxdhKSr1FXn/FMvgwyLwXAh3mqRCRiZxdmDFlJwlGNQUHL6DBrDd655Vfcq4MR4b1yMBj19jXxTWACOZusHEhlnidBMVA/rKSU5GM727dGwiH7zKE1crdQPh3ws6d54lbnNvQjgMz33aUxOnDlOk8MOb1XKSifohacho7MtnbnmTsuMBmyeHlSTzqiwn1qjAoa8o1nC8CvVjXy3Z5bXJIHb0+G9sde/u82HYyeYK5wnLxmrIE6DPhHVYQnXnD94uwL9k0zRL56wyjuXrr36HA28xXCE48ecwOL4ZDOFf3/U5W3rI4A4MaLxYuraQ2ARy1OcLbaWxzGAjAK/2f52AUO+ptWL4dvLlHIc3ncpDTcPrjIAhTcGmF2RypaZqWnIRQ1j1GLlvthMc/f84Y/BMaMcf1EBOpZta3t7UCPnT9O3/xsJXvJBS5WXwE+Y5YIo/e639JPHqWBbU1oqhLVw5hS98CQ0dS4cmrn5HkuQhQRXVXkTBlNj/xqKFEdk9SHbe1mWwz/88MNVijg9xuYuIqRwMBf7vMsbDaRwXMCj4ZwafLBJeSVWD/1O7rouODnou3rRc/kc+fzU1kmwaRwT/D2v/Iq+9T9I8DOnGWxt+xhYDhrx0bmTzCRq72WLTsdULNCp39AT/wfEKIeiw3/5T/mmdosXMizoJ+zK00JSSaSVve2+oH42vGpaI46oF9FRV+eVcJDHNRulZsDsAcGDA0B5RcuV72End1znnRvzDZ6jC2do5BK8BtTQVIYmdlHOnKSffo9efIoQVwdTIlRhmwENgrXhDYL7ffAC81qiLbgyzSscaKGBt1ltzx6h6fFiQ/Pon/1NYvcNliAOIIgOl0jBGAhWGdML2CDhrm1j4ZBVQUSBVfgfLdXh8MtvLmcbowKOApvXDsZ5wWReHcyWx6bgFGAm1fXM4w1Hf8KBYUUWfU8dO2j7HsJKZmKYBs8yJsUSENUBpgiMYNchQB7nEEGP/QmNIODwStdO6u4nr4+mxunyW8yVicVCMZ9r67368b9L9+yyqGnUjnN0iHS2NANNfWUs39soAUfXHqw8XDuOcOafn8xPp5XtHdigXJk0WOItuumD84KLRes6H1vyTadf6nn8YRKCzICCI9aYhFIMBaRCAOdaajXcGFXCp8vQZ8tMgmxFQn9A70geLXfNOy5+/D8XgzFrOJG+gRwRhfLrWNirE3NFfG6/BvusNREj2lm7HQ7Ri0teEBmAmABzPC7whQ0EJHv8nvOKhjBD85TCrb/Q/46eSJoEH+V1xoRRwyxS0KDu1AGC7mRorg7fIUNBufBIsllBVcvOTVgIqEfMzO+7sRCKe2zRvWgKd1ZYQER9OHc4syjj2oDy/VBLq9afa8cRNUX8nuYwPzFTCPsRA7A0dZBUiYKK4HAYQJ0Bbiht3YnVjCBHuCSNbSxjnVLrxFsHwH4DL58+W4wk9QKozagQZ7nA5k5J8HhwDMTyBIOYXcSZUa0jgstbVtGnVU29tTvQMO1RkcWeJVnYVCkhkNU4yBIRPe04+1GeNMtGSmnM1upX/xtVYUD4lDqjqbI36FgRONqipfETtg4u0WgOeppCVogdKyllrgtH1NIS5pvDwuhMER6gUrdAEwtFcLROFrZJVZiS0YXjpiQ5ELUwNXoUE+0MzQT14EQB+rklJuEY96p6t7rSjlXvgXHAcRDM5tMd6NNMQUUAHz42JMGGEZcYIMdW1pgJP1oQba0kdAaHiUGL9gpx5UIyo7RGhDUcx64Djrj+qr+Vx71DOI1k7hygTBQ1MA/6bel1MdxqH4Y1pxZnNAKgzDaXtQr2W8ZBElOCWGTLVhs3YI07PS/7JA5nsZ2qqZJXBxzRQmfM2xrmx2ccjvRD/4REAWuvssEEsFtQ2bKBbv3jv6FQvMoRmmKScHQrHneH0hyPaxg69tUL+jabkHEdxIF2ISg5kGoVFJ3WXFVfcSgAhdOlX5gxOu1wUhL9whY7/JKlDqb8DW6D14pXMhr97dfZvpgGiitHHASIHCzhb/qI/Kl/zBUqxtKxjmJLLsD0DJoGfI2Wu/v0oWCKccPQ1Ly8vUlsCK2FGFklelV1SI1Bvr9FwuG8iTkHKNFAWBJ8/NIhEcWH3Vcba5V64fG+/vT3VdDjX3yZ3v+X1Lmdxa7Au6HCaFcpEqe976ZP/hf6yIOXLpwrzF110GWlqoQQ6NGQiXGvM+IAEdenxIN8Ny7HWSseVqNkPYjiOrZsQbs4VUB3sF60VIXBYNdBlLlFmBdM9luXOivlPbwweOr555+/44476I4/p3e8j8YvU3KWsADHBktjF3XsZF+I/vWRr365yxkdVhsoN9hggAiZ6MiuWALijKvE0+5WIVSbS8IRIutoHQvVmImuwt+Jg6iD+pn2eJgvX8sw5oKnr5nTZG/Iyq3lbdzZ3/uuz33u+9///r59+6i5i31AiaBgmFHLltQXv/hF5fxR6j5QuXu4giLQggUPtJ1TIVwyNDJVgMV22w4pHKg8H07vWvLWSscVqgZf9LdKPY3i0Dg7gGs3HvEeCAMRPxUqWMqGBGjJzXzmM585evQo4kyYsxMOXUgyjsP27OTkJEDENv+9125zqwfTGGlFc44g4pqU0amCLGs39vrCgVr9EZWaqyc9Gm3A87KzRcLA4TLpbpXiYWsTTE8gVqJaevCdXR97+swnP/nJD33oQwcPHozH49gXm5mZGRsbQyjLK6+8siMWuK2zzDa0VYmld9yWyQgaV0qBElVF29fpxR6Jvcxqc+pQhb1J3B62qxVXE9LwJG7HYUF+ZgsSOHqCy+Ei9peXc27pCN3eHXthZP6x73zn29/9bjgYNHA0lk0ImnjoYHvlt40nWkpyABqMMjJdwA4WQGyP1OEyKTS2ITiiXkC5u80b9nreGs0VCuxuKRyPKolLn9/PwhtdE9Zmnz3Qfm42PYXNT45LZjL4YKMV5gt2Jj9xbfO9O5tdK4CekfO2nXOYEzBxsJ65aZsUgl/Mkeer1OvwuM7y0dwCGLwnLhzslbCzeG44h39Llg7HvI1VphAj/EBf7O9uwL2sULwrRhJ6fEdX+O/f1R3zVqkBQCoIRNETaoOXG9cmYP2K28Leg8s8Aoxj6pWqdmVdDcFf3xb1IhoPV0CeH861xJjzHEe2CzhYjf0Z2DHVhvLZA209Ed+/vT06m1Nxu02Y1/a2NXz2QGtfuCaDGYYBsAKCMBIn54rYkN7VAjUoYetqXQOzvbyxOBrN4d7KUJdvIiFfni3gxB7soRbAJ/kZjjWkP9kWu60jOJtXsOcDU6or4uwHc66psQULPlxGigtlWsIC+AMOMctujPOLq8zdDBzRJWwE9zaKWPMMTBXgZFvI5VoQVFJzX6NeEZ+ai68UnF7gR8QCtp73dYhtUcm8JbeG2lxe2SQc0QMwEu4XemePby6lnL8oKFKYzybKfK4u3VztI4hTJlHhHuG7G0VciLvRd7JvHo4lKOIh/lAXpyBCF55J7E9hZwYY10teGQgu+Ty5/f4EddQkSVc7U5byG6ivXXrGnTwmpOeWlIyBJtuicnmjhkd4HZWwjcPlOYFJcOSx6uEbNdRdtchW4IgQsv/7NX0jpRw5QLA2NEsI2okER7qef7oqCusvsLk4YiGG42rf/mdm/2PwoBv73TEGmnA5LnGo0xhLj1DMoEErgtjF1aPKxQA98Q06e1oP8lsnwTv1ZDlv7XEAbrWan8FvmErR/DTNjCFuT3njuOfyWQ7nhnG01b/soMUAzZH0lqrZbcTlyWnLZ6kECy5aLgyIEzwLWQlH6J23UPcO5jfCGUScPUEESzXT1dqo6++NxDGbobMnafA8XR2g8REGJU4M49YNOHsw1IiXvCaPL6LHEQGRSaxIN9d+Wx8Ca3iDsFWdT6/oLNQ5kdX9nIizKDJBieu+WjqouZ16r6Vde2lbv/NBMGvt1X9vJI5YTgM4MBQEIjsrPI2gLxq/yszvfe+i/AQd/SGDFQnLvlCMRenNTzA4DPpjzFtNixtiwSiFtWZDG00vu8eB2vbr6fq76PhrlEtTcwfFG6mhmRqbKRonOEp8PkK8fp2ociPtHiACDsIHvbckQPzyD8vygjHds6tDaODC/l3maDNnV8IWk4HVNCpZumwAcxOlA7fSTXdbW9+A35urZ0oDMNaFpdsVMHhA4OLcBXalTyUUEGQSNnkbUSfOrjudQqhUwXrytwhHdBnDNvMUdmLNOAKFQNRtT9EYdFkZhVCJOYFtLZG264HK9d0twhEI4vgrdgFLCR6gMhw1ine4WSoGp5vLgGBRifkGERa6V0kKuKKy+odbhCM6iqs+Sk5WnBdEGF/IdOALmIYaqt/PYS7DIvLNoRMqefWbBjYlbVIzDmMB08EFWXLQ+mAPQXfrZIZMkCo0eFXLOQYNVtJBCAQEcCUCxF/sw5UDmzTATWrGAUd21cdy62Bzf1iP0DUsc40a4swYrIoj6HHlGN6y8WQ0BgYHrJvE1vWLp3BAyj0LMIEklxJMaJy7XIYVaHoblkzLipXoiMOiWoJe3zqAnmHHIJaNJwSs1sk8rNiLlQFULbJBBTDCEnCgHfOYwdcwJ6smWDmWkFT42CEQDEbHd/D1ZhHk1vE1iJEdFNAHDaGGI9X4LCWNmOCrIQVMcBs2wFIUM/wUguUijBqqW3uRjVzPuPcKChofI0GQYYG4cuWTwpR1LSyJOCHzviObG9g6CDTAeQXguN4oCfcRmJ9uHT3igPrSrR7QzgDRZPRA5PljzG2BoL1SYmEY5uUhLHmB6SKm5fUEQJm+Xt7GwVPj6Id5uBv2fQtxxDVHhpMCpzMQMW6s4ZY9aUEDVhNwsNvxsSRQH4SsgS/oFxOD401GAnWv6DHre3X/vXU4ArjS6XSQlddfplvMgg+DBoXCddhjuiCF2ZhYWcKPqa8FATgIkwlZna/xAaybZYSj/a3DEYNcGifsZ7GMdsChgLUs4Y8ptVDfdSvQAEdcjwBi9C7fxAPgQODsp240Mr7ePOm/RTji9NpbR2n0sj6R8Hf5y1wMoCzL4SHgFWuj9u1lfwuA013CMOANvsZ3zAeuL0NhfKZG6PgvVn1nQPns1f5r02ZMI1xMk88wj/eFU3Ti5zT8Ovs7M8yE5Gj7DcyxaiSAgkxQlllfw1/b3Est3fi7PdaxGUQNxjc8FHveQ8efonyBXWb44nfp9C/p0J9S/zupsZvNFhi/FjPA2kb13xuPI+6knxmlhSkav0SDb9MIDrVmmZXjjzP+gy29bS+9+0Osp4hcNuQMRB47wW5ygiE+tWsXNbSyey7yy5fcQ6tAwjL5CBBxwWmBTdWO6+h9f0Fv/JrmZ0hG4Qw99116/t+obRdtP8BOw4Jg420sLrK0Cj3iyqMAAAKUSURBVKiOUvUSG4wjiAtjAxeDaho7GEEd+pOVToE0Ik3s6DD48eLrdOZ5ZrXA9wMjHCaL+RZB4BhvZ/KufTedf3XJoDGsxcY29gpexA0Ux39GN9xJ7/047bmFcGlU0XRVAGL02f0q+iWo7JBtnVc6G4wjkIJzHx9HbsJGzcQVeu0ZevtlnU6x7YVdfJWufz+7HbKUsAnRtG3JJ7b7EJ0/BkNp6SHYf/ct9Pqv2fU0SD/9n/TqEbrhg+xOzb79FS8JYKKjzg6MDcYRYzP3GISJLae5SbpwkobA42cIURWgDV63n2HHhBrplvvp0AcY/U5dXaIZrUh91y8Bh30+8C+P/SmcYbzCiP2ag3TfF+gX/0rzV9nm7fQwPf0vrDA2C9t2U+8e2n0Ts5kgfw1z1dKlpXrX+99G7hfa+4aLzmbH9c3VZQMbstJw2EAg+kPUvoMRUXKBLp2kI4+w+46AVzFN/+kxtlOKhL3c//4pVgOAVrLsdM3BDzB5hxmaGaHZiaU/0gfZZ14gQSBAqsByqjcZloa4uTjakTXnYKd0fpIuv0lnXqSB00yKAQ45S++4iz7xhRWL59iT9JOvLhk3WDj27Kf+g7TnZsI1cOU3dLq3Vt+nvwc4QvxNDtHZV+niSRo7y/4QHLgVRAqMAOL199C9D5YdO8AdFseO0M+/oasvfYcH7iIsByET9txGew5R397NtMCN+dg6HGEPDbxO516js7+i9BWScHeKcbYArhost/204yAduJ3ZMbZT+6zrUMev/Ywunyb8lQHAbfjfigkq6H/dY/eHad9h6r+Bqf4N42UzRW8djiBDhFqwGBUn1QlDx3bUwNzvle+gSsuxMeMZMiFDS7rF+eW65W4djnUbwu9FRf8foKJGfqBKmmMAAAAASUVORK5CYII=;" vertex="1" parent="1">
          <mxGeometry x="420" y="255" width="47.81" height="50" as="geometry" />
        </mxCell>
        <mxCell id="2tirW4YySyGKOFdSVdBK-11" value="&lt;b&gt;Argo CD Hub&lt;/b&gt;" style="text;html=1;align=center;verticalAlign=middle;whiteSpace=wrap;rounded=0;" vertex="1" parent="1">
          <mxGeometry x="467.81" y="265" width="60" height="30" as="geometry" />
        </mxCell>
        <mxCell id="2tirW4YySyGKOFdSVdBK-13" value="&lt;b&gt;OCM Custom Resources&lt;/b&gt;" style="text;html=1;align=center;verticalAlign=middle;whiteSpace=wrap;rounded=0;" vertex="1" parent="1">
          <mxGeometry x="660" y="220" width="60" height="30" as="geometry" />
        </mxCell>
        <mxCell id="2tirW4YySyGKOFdSVdBK-15" value="" style="shape=image;verticalLabelPosition=bottom;labelBackgroundColor=default;verticalAlign=top;aspect=fixed;imageAspect=0;image=data:image/png,iVBORw0KGgoAAAANSUhEUgAAACsAAAAqCAIAAAClYzUyAAAAA3NCSVQICAjb4U/gAAAHPklEQVRYR+1XV1MbZxTdqg7IookmTDEGYxwDtsfjCS4zGY/T7JdMkpdkxq/5NfkNyVOSyaS8xSmOnZfYmJgALgSMKQIESKDetuXcb4UD0goJXvySj9Wy2vl277nnnlvEG4bBvdYlvFbrZPz1I5COzAHCZxg6x/MCz3McjiOuoyCAZU3XtpMba9uLNU5vW32XTXIcGcfhEJBtQw3HQ89XJ1cic3klb5PsjbUtvf7Btvpuu+wU+EOHla8yFwzO0HVtK7b+NDjxcvN5VkmLgijwoiRIoigxHK09zYMtvoBdcvIUl2pXVQjAeSQRmlp6MBeaTmcTZBuGBfzDWQII9lUs4PCfavZ22CVHlRAqINANbScVmXhx72nwUYpskyWYxpmueYICBAwEg4TvgtwEPvynm73twFQRR1kEuqHHUuFHC/cnXtzP5JMIMDNMTtM1TwSYrps0sK90HyHgOeyQ/N6OvpYzwCGJ8gE4rBFouvpkZfzH8S9SuQReyOyR3zxPZ4SfGcMF3Wc0yAUaTAQMBJ7DzY7GntHuq06bqxwIi1yA6FK5+J3Jb6LpMDMj4rW6YfCGLnACNIHkt8uOOpfPJjtRErL5dE7JIF6iwTaTbTIPNuDJ8tZ8Q42/v23kMAgMI5zYiKa3dV2HbYPnDZROmNINQTR8nuaR7jHQ67A5RV4CXEVTwvH16aUHazuLWTXDxAHrFBEsTuXC8Q2tRQNbliCsODD0SDwEGpBSMEB/hm4QpeJQ58Wx/re97gZEnZhmy8EZHkdNizcwF5p6MPdrIhODYiSetAlWsGEnHVa0nChYB8ICAXhGsdM0BQEmmYACVF2eh+vXBm+5HTXwb683jHbRYXcNtI+iOP42830qG9cFTeQkw5CBP5aM5PJZh2yNwKKEUfAi86bvIMBcnY19YwPvuB21ReZfQSH98yL031Hfg7ioWl7FWVdVTc2pGZTwvaD3XhdzAJ/TueRGNIixwfQeu5FOYwPv1rp8r5jf/7qCFObWp2dXJ8OJEHUsTgImhBHXiprfiK12NQ9YgihFoG/EVtL5JGkAiygWAg29OMrV/Lyan1l+OB+aQeA7m04OHb/ottcANM8J8H4zGgxGFiKJDZAhicXmyL0iXEiq9Z1lhI3pjD6QdY9/EF3H0gO2QURn6ms9A6tmkSh0bMZA1n/6z9mfN+NryFhJrCl9STEClWS4BCkAL7V91vtbfcfL8E8vxE4EqPTVuAN/MrnUenQlk09llBRUXLqtGAFSYH1nCftAP1Ku1unrbj7lrwuwoFa7ICHIEHp6EZqZWRnfSW7Jog01A6Wp9BX7EJAM86mt+DpC7nHUne+9Ntw9hvaPuJY+ecAdmH+88Mf08sNENoZr1FRd0EPRlf624dKn9iEAaauRBQQMRfetNz64dPK6w+Y6lPemAUXNPVt9jNijPrJuIsC3cmLchwC1aDk8p+qKy+6G+KEsTCW7MyBeQhkKSSPXZckGbZYDh36WyETNFsq6JaoOj6Cgx2KqK6KhOApoB8hg7P5p8quTrWdRgDEDIa/QrPNqTtHzcKvWdayzoa9cdsCNzdgqNrMWSu3UTA2oGzcrRAGMoaL9JTuxdXbt78WtWYxccBfN1yE7m+raAo0nAk29fm8Ao0c5AlBL/lmbAuLdPg4EwCLCe6fNXRGBdL736uza5JPlceSyqip4QDM0WVQ8jtqrgzdbfJ1QdelbXt1RtPxC6GlwewFUUXukYYKqtcvmGT5+yRLB/h7D8y675/1znzZ521ERdQ4NGS1aA7HRdORJ8FFOyZIYyizIHuVvYuGepqlsmkL8qEeDxYGOUZRLy6JS3JmAF3Pme6OfAArVdCyDEMC58fnf7858F8/swBL1rT0LQJFBC5vP7s78kMzEaVgk90kHkmTraOg503kRmCyRW09pOTX7y9S3dya/BggM4+YkiNRACKCGcz1XBtpHzMqPygvz28ktFIDg9kuQBEfZfFIY4zBKXT/74TF3o6V53LRGAMPJbPTL+58/C05QcQQIXoJJ9utAhgzRpn2eRofsNhMH4wxNb6ySMtvAAAJ4p83zZv+NrqZ+lpDWqwwzPI+aeOv8bXQ2dFtOU82fuGZJgEiRWhhDmNDwwfRMniOCrJHgj/6BsFPto4GGEweYB6iy0PCY39t+68JtuA57KFMKGj0OVCRdwR0cECkNcHSwarUrDrQQgGvzdQEBHrf2ffduWQTYAOeGAheuDN6E6qA+NK3C2MMmH9CORKVkoTO2MAAmEp73uupHey6jth5s/iAOzCcl0Xbj7Mfo/TpHzLMjj2Qzrw1dYzSYlhkIWgi/e6T7cr0HnbByRz2IAxMEfmx8dOmzek+zWRtYftJBqcrYL3yF+2Sdwt/fOtxN6qtsnp5gHlRei5uz4y/uIunNam8WHFybSW+ORqRKUUa69rUMVfOL0bRaLYKC1P4rRGX9K2RCZacKO6pFUPULD72xsg4O/cpDPvA/Ao77F12Kxs56xm2sAAAAAElFTkSuQmCC;" vertex="1" parent="1">
          <mxGeometry x="617" y="214" width="43" height="42" as="geometry" />
        </mxCell>
        <mxCell id="2tirW4YySyGKOFdSVdBK-16" value="ClusterManagementAddOn&lt;div&gt;Placement&lt;br&gt;AddonTemplate&lt;/div&gt;" style="text;html=1;align=center;verticalAlign=middle;whiteSpace=wrap;rounded=0;" vertex="1" parent="1">
          <mxGeometry x="610" y="270" width="130" height="60" as="geometry" />
        </mxCell>
        <mxCell id="2tirW4YySyGKOFdSVdBK-17" value="" style="rounded=1;whiteSpace=wrap;html=1;" vertex="1" parent="1">
          <mxGeometry x="580" y="330" width="170" height="90" as="geometry" />
        </mxCell>
        <mxCell id="2tirW4YySyGKOFdSVdBK-18" value="" style="shape=image;verticalLabelPosition=bottom;labelBackgroundColor=default;verticalAlign=top;aspect=fixed;imageAspect=0;image=data:image/png,iVBORw0KGgoAAAANSUhEUgAAACoAAAAoCAIAAAAHaf8HAAAAA3NCSVQICAjb4U/gAAAH3UlEQVRYR+VXS2xU1xm+53FfM57x2B6/CTa2IbikqV2SFMIjKQ2Jkw0kUYPaSl22ahbdJF2ky7aLbrpvlU2kqmqlSFmkVSNQqQI0EDUlVoCAAb+xMX7Nw/O4c1/n9DtjwNhcYwOLLnp0NLozc+/5/v/7v/9xiZRS+98t/jjQsFyGmkY0QjVCHuWkR4SvAksnE85+6VFJG/sNu4FSHPaQRpCHJl9qQsjyoj9xujB1puLOU86MRKvVvs9o2cPtNAETmzfi4eAlgDPe2L8ywyeypZuSaobOTINbnJuGYSS36K37WeMzxKxT4djM2iw82C5nK2NnZy99PJ0bD6g0dG4Cm3NL55aBa25ypusGT2ylLftIQ79m1G5sxCbgpeYU3OGzU4MfXp+9UmS0CsksDmzl+u2vug47lAWUUsa1RIfWepCk+4he86BYbCA9t+QNn5s49+cLU4MLjCg8jZHl8EoJ0xXBQl2Aa2yGC0a1UGjZYZkf05JnSPshlv4W4XZ0KNaFhySX5gof/eb41U9HidQpMTQGZKp26CuPFCpUKEKBBVVgE8E1BgOqeUgCsniVZEfD+l7W+2NmN0ZkxbrwIhBfHf/6wolLROMcoIyFMqQiDEkAR+E3tUis2YinwDYLSr6XFaEbBmGo4JkyE1bAVhqw+a9lzT+1HccisCJ+WqYJTo1/NeH7PqdUEuUhvBZEEBLaSdp7aEvf0e5Ek81NhvtDTxbn/WvHs5Pnck6BcCQjZYxxxnRGOajJjmmhq0K3Zq0LH/jhjSvTAlYQRS1FiBW9oqkzMfCL72z5ZiPSDe7dTnGpxer0+g6rY1/h7B/G8+M+ioHSphKjiceK88QrGLa5Nh3Xfl+2Dg8sTi3m5rJSBhLlrbo0Taa31R799YGO3S1GTAfDK+UFl4zoMdben3zx3a741qDs5h234EK6vuMFbnHBr+TEWt+rco1YoHpmeKaUL8IOrQqN882EOfDOnubt9Uiu9eoa+Ei2GF0vpjy55PoFNygvw1fKlcyodz9SNPmgfPrqtFtyOLOBr2RMSe93t3U+06awo1boh/m5/PV/j10+OYryIAMLEhBUFxSaZb5H5q+53S/H1jy6LvyNoRsqnyg4R8JQxG330Z16VWj3Lyh+ZHDk/CfnhUeautM79vQk6pOmZRGqh2WSGfFvfulmxp2gkuLWqvSLhg+8YGroBvxWSCgzhNa1Jtt3NYOD+7GXb2npannt7dcMy4DekXrIODyGv6TQ/P3Cqs2MnSo52SDRqt97QgQ8nJ6fnMvP5/G0glbHwKcGbkTTjuOAl0wnIy0TmvRKwc0LhUo+LC1uBj4UE5cmvLKn1EypFbe27mzb9b1uXEcCRP8otdAXzpI/+UV26JNMZjhkzMiMuC1PrSq/Ud4HYvLyBPg3TWv7c90HfvB8z7Ndiaa4yrRNrzAQ107PDH44uTQtwrKO7KdEzg+52pFVR0TAQ0cz12cQ767+bcd+9XrbjhbVRh5yhZ4Y/3zu1uUiJ5gGlHo0QbITKAGSmytuRMAHfnBrdBZUN3c31belhKo6dyoGIolpJ5B+WTUVux7RibbLKwf5mz4l6AjYaBqq/vsFWV4Iku0r6ouCd/1yvoyCc/nU0F9/d7z9yS12TYxRg0geOjRwOAm4lbBa+2wrpY69Hx/PLs24pVshpyi9quxXLWDoWV5x1WAdAW/GrNbutrHBiexM7tQfz8bitRYKnp4wjWRDa9MTT7V2Ppdu3x23Uzg2AhvW+I4YPZPxltB50HUMbNCAFhSr10HYveZGcGfYxqs/ezXZWIv7oAO37DpFp1J03LLTO9B08Oed2w+n4ml0tWhshGZ2qDh+ZokRo9pyDEYhPRBm9B5NxNIbwXOD9x3ue+GHB3SLo98IGQjhB8L1/crFv48szZVUI1hnATs35Z7/YLaSJdVpTLmuZkBT79gf7zxgr3kdiPAeJ2NuG3h74Mm92zWCAQPYXhh6fuDMXJ/96L3PZq/moKw1RqjqVhGLI86nv53MDHvKY/ihsA1u6Okd1q63atg9ml+2f91RE7Vv6sr073/6/sJ4jjNL12M6tw0eM/V4sqGu96XOZ4/1xOstVCY4JEKtkguu/G1h7PRSJScx/yitqaEDfVmP1fG97ybSO1eV2w3glwP/xcf/+dMv/+IWQ1jAddtgtqHHYYRhxmPJRENbqqYhBll5yKj5MHBQ4u8CA16lnBnXn/5RfNvLFo3qVhHKvxtWyLZ/oG/84uQ/3j/pYeyodv7qJ4IvRFa4BQ8TN6tO3MpR5a5KRDWHVHuFbtAnnje3vmBGYgPoQfD4G1nwyk9emrg4NvTZNQkN4I1SbTX5YAy4Y6gqampLDNq3SSUaIkBSXfrO1209Fp0juDVaencJwMGpltSb772RbI75oeP7Rc8veQG24wflIHCQmCGEKXwB0avX3eWsUBOK3cC+8f1YvCWK9DsAG8DjNljQ1dd15J0jzJAKFfB+GdgerAkroYJ3kZnIz+pUiLIsNBTImNYzEGt+2liTaXcdW77YGF5RxOiBtw7ufXMPYYEvgAdUeKycrn4GUqtiq6iojUi3fdvqORxfrzStsFsdYTe1MHme/ODE3EQGM61KRUza1Te96oumCQGiL0DtKHC17Xb3oVq7fgNhKWo3D4+7MYJGWbqirNtXSvUPerN8FO+jgB/3t03F/nFB1n/+/xv+v/7MybOos/TcAAAAAElFTkSuQmCC;" vertex="1" parent="1">
          <mxGeometry x="590" y="345" width="42" height="40" as="geometry" />
        </mxCell>
        <mxCell id="2tirW4YySyGKOFdSVdBK-20" value="&lt;b&gt;ManagedCluster Namespace&amp;nbsp;&lt;/b&gt;" style="text;html=1;align=center;verticalAlign=middle;whiteSpace=wrap;rounded=0;" vertex="1" parent="1">
          <mxGeometry x="650" y="340" width="60" height="30" as="geometry" />
        </mxCell>
        <mxCell id="2tirW4YySyGKOFdSVdBK-21" value="&lt;b&gt;ManagedClusterAddon (Argo CD Agent Deploy Manifests)&lt;/b&gt;" style="text;html=1;align=center;verticalAlign=middle;whiteSpace=wrap;rounded=0;" vertex="1" parent="1">
          <mxGeometry x="648" y="385" width="86" height="30" as="geometry" />
        </mxCell>
        <mxCell id="2tirW4YySyGKOFdSVdBK-22" value="" style="rounded=0;whiteSpace=wrap;html=1;dashed=1;" vertex="1" parent="1">
          <mxGeometry x="210" y="470" width="550" height="440" as="geometry" />
        </mxCell>
        <mxCell id="2tirW4YySyGKOFdSVdBK-23" value="" style="shape=image;verticalLabelPosition=bottom;labelBackgroundColor=default;verticalAlign=top;aspect=fixed;imageAspect=0;image=data:image/png,iVBORw0KGgoAAAANSUhEUgAAADMAAAAyCAIAAAB+n3TYAAAAA3NCSVQICAjb4U/gAAANjElEQVRYR+1YaZBU13W+y9t6n+6ZpmdjYGYYITxIiEUEa8SijYCMFexI2JYKW1WxU6o4lcTJn/xUVcrlH0mlKnESJX8SxSlbJdsSVoRlyiKAhBAEUWIRYhHbMNDTs/U63a/fcpec2w1MM8wwg12u0o/c6arpfu++e757zne+c+7DUkr0uRzkc4lKgfp/ZPceGu3eH2l8AjiKa79vsBV+qEt16mL4D98EVnPuOTi/FTKBJFYfwMU9jgoVwZmwDBE2TZ0SQX2MdIUOA7h7Zs5vg0xiyRDSHC7yZe/0Zb7rV2OFKupoJn+wJdXXgeJBUyMcS4IwEfBX8+b8Q4R/Y9WQQnquKDLv4En7nX2la0VsCyzpJJFaiAZ7mvxvbE3et8SKWcjQiMQUAN4DLkWJ+eiZCptEmGNEODzDsc9kzmN7j+UPfOgMTlBfMqz4RCgzJWHgKJhkUr+3lW4dSK57APAxjZoEEazgwV1RYyP8mBXtvJBJ6QKFBdJgF8wXWdvd/3Hp3cPO1ZwtuYnBH3CdSCKwjoinNnBjCCx04vem0OZHUgP9wXiI6poEcMDBWlZAfOFDZwzxvJAJQCSA43x0Eu0/lt9ztJTJBYn0YNOQerA6bJ9jM0ydnlZ8eUzYvl43BuziiAJknXidSbF5XXzTilhLBGtUUqTX0gf495siA1ge88craPeB/AfHnMwkZqAAklMgGtIQhiSA30Igum4J/8sXF//w9bHDpyErVKiowJzANDAvODEpt7oS5Q0PG5sHWpMhbFAIJvBv5jF7bqpsBzVg6aL42YHskZPVsSIFvlEsNAgSEA7DpgWF4EhMpC5olYpASCv7jEMmAIuwNBjx4Z9KT6lThrhWulQg137N/ufo0MCqyFc3xlIRhgg4eAZ4M1xq2AKbtNF/7Rr/5UF3vAQ+BwvAC6AT7BW+c5MBJvgOlBcepaUqdfzgZLEK/IEslditcYmo2VhATInQNEmk1DIF460DxX/8z2s5G5adOQlmRVaTcTmYq54YqjKpCQhqXdmngENEfZdoPlZJl8C8PVnVdNzdBpmokoKrGjCzVYGrjiRnrgdPXnZnWlnZmDWaitVSDl73ShUCVupKD8rOBSxVtwfXSdy01y7VNq1KLmpNNcWwZeDvfq3thSq7MuwfPuq9f2ay7Mgb08F/GGmU+JxBcGEJ26+cOCU29QcJ2FKZBG6a2smsyEAkbJ9/NsQdoDioE8IdTeLPdiQvXK3++4FJ5GKD4DVL6c4tC3o6lT2YA/IBgSMabo1oqaV8TV/06ZHA678qHTnrONI3TLRjfWR5Z+Sfd4+nx1VFA4pduObYnh8xNODvNPfOigzQVzySyXpqL7BrImGvFc/b9mhE98Tbx91HV5KdTyWDllN2zGNn7VOX82v6ggMrFnxwMn9x0Lu/O9DfR5emrL/Yab2+J3P8NH1iTeiJLwZPXKkyx0NIh/Uh1iUX5W0UNoCZSsYbs3RWZJCGuZIYK4CfNazEU+ZLoX/6ceGRVcWvP5l6/Kl4rOajI5fJq28MpicMn8tliy2EeLos3zjioUPu4mT1pa8sWrpY+9bTrTu2+pWK+Om+wu4jtu3dEjBc8Wh63F8Yh/QEuIFGZHfLgEzWL1RAOSDngSGcETsr0IGPtZ/vH20xfGKiC9fL//KTwc/GQhXBEEMRC1bzoxrIq2NzOTga+IfXhi9nqhbBMaLtP5J742jVdZlskNaqTy4NuUhCYIA0t6XYrMhg9tW0cHwX6oikHpYaiDUIGqjPY6taMLGoEH0Lw995rqur2SYigLBlmhRLK2xRRpWb21v4d55v6221OFglsndhNGxAhhsUpPfm8Dk/fbbiq1bqNofB/VmRVT1yddjmqgYqza0vBUTvauX3dehlV75+KGczPrAk/P0/7n78IZQIlsJhlQHxGF2giy+vDP3Nn3StWURLHnrj/Wy2yPt7A8u7dEkZI1NGoY5kil7JASN0mijNyrPcpBga8QXkDOK1pkANnaJ1y0I6xf97pvraHv/S5fxLz0Y7E8af7mgZn0x2NqtZ4MiX/9xKhVFAJxMV799+Xj5x2WlLemvvNx/qMY6dF1WVVDcHxllXz0yw5k4opUq1b92502dcdc5Sjuar+YqSfZhbe0BdNQ208v6AJ9h7H41WHO/gucrfvjoxUpBxQ1/SbFiEu1yaxO6JGSFDTlT43/+o+OG5XK4aeO8YiIPW0xEM6joBCbpFKSkdoQ2mK3fq+HRkArkStJTzi8NOmXmQkmojKppKbMFbyTCkIb2W0cGRrqufvore3n+l1rDyQ6e8H/xH5uAJxkBhuP6jXVdOpws215C0B0cd2xGJJjNsOdBNTflMYsa84+dsjj1oLaeuT68BKtSQwNiV8vqo5/uK/ZA1ULXhIvQyBog4bJlD7Ssno9qSTn1Zd2DdsjiURAexn+ybOJsRBVus6g9HMd26sT2Rcs5fqV4Z5h6jnAtDw6YONWuKUWrbjA8Os4qvNakCO4Xtdp6pG0rwylVxLcOUXtzo7GAtqWFuUI9Qael45zPJ9mSoNaEHdGlAt4Wg8aBrl4TdsrOiBy5wpOlfWBToa9cdN5bO8+GcHQ3Sqg+05QQ60JsA4AvU+mxFG5tkMVNrdNq0DKhxUKLxAh8t+NBWKFdhnIii7g69q8Xs724OmMjU5CMPxhHzPE7yk17Bkc1R0RLUnn2iacMa2RrTLSJHin6x6AeDWsRC3Qt4X1sIKphG0Y4nW49+mhvJi+GsNj4pCCgZli6jQ8NuX4vRqBXTcxO6G2DMUAZqTn0DUtfxs+ubNzxk+Vxki9WJomhPkMyI9/bB4kQBQeddqoS/9iTZtq4pHNQDwbqM8r2Hc3s/8gKGjDaRtijdtj7W28EKFU6w/9SjyURAnrnqvvLmSNmJIcIYR2fO5x57MNrY3U5DpnJQ9V4qpDdcLrj86MJkulg9P2SPF9Cytom//uZiM6gdvmCP5KTAxCSV5kQcUqRYwacuTay8ryWsk55Fwex7zmQOsXG/J+Zu2xhxfPLOobE9h5gRyn5hcRgzDHksCXCZEGh2Ayo+jRkwLTfrHQvt7wn2tiuyw2woiB+fr+4+WL4wiAsF7dSQ8dl1JxYiW9YSYDTkSO8CtnxxUGB64OPiD386/t4nBSb8vk6zOcgIJQmibxuIdsStTM478qk/4bHhHHr3RHnvKbfsQ2PHAVlz2Nm4egFVjdDUmK4a9RRIxfRvbGlrj4H3ILiqbsqaDgoM7Ybz41+MVxyxfaBz4wozZPEtA/GgIa/n/Z/ty2UrTW/uL2ertMnSN30xFAt7T6w2n1wbYoL/9/5cegLKG5zaTc0PQkgoaADRwwG0c0uqO6U0oREZffnllxt+1w6AEEqCm6NaKOyfu8SgQsEz9SIA9wgLFtX5gy3vNVYtDeuIb1zRFLLwW3BWOMukoPmqjAa8/kWB1lSwJUi3bwyb1Pz1sfI7h0uTbi1kmAkCH3i3QEM6fnrAeGZ9IgDl5fYObQaf1YEGNL5+efzph8MhCmy45WdwnFeQ/lvv818cKEMv+sLmZGtcs1125oITiWjxsEhEyMWLqgK1R+j2RwMaIvuOF1/bW56oGuB+cD7oj/ogHXry1b34ucdbQjp0ubc5TIXuzrJQR6auS5kt81d2jR78xPdUZwtDCRscjbAwLJ0PPKh976ttwRCSPp5w3UmHMpcbJo0GKHREBkEu46/uGd/9oSx7Vegw4OQJFjkIEWIG0pa187/6dvvCmElV2imBaoje7OeAelibIvSbW1vGJ4Y+vW5w6auSAIVRiRBgwMfP+OObGa1i18OJiN4SEDQAdBEeEkNZOIaLaAh9dM4ueTqVPlV+Avsg1eqYnmpi336ufWETdJ8K1FQlvYluup41oobvcIJtazFffKbj715NX7cD6lSrjr5qLcjc1Q8ErZD8wb+mz49oTWEciaAA0QRjBdvNlQnQ//sv9Ty2MjL6rl1xI5DlN72OwE3PPxVfuhBAmTctTo/mrDyrPwAFwCCif5H5R3+Yajagb6zDUtCawuTrj4WGLomLaQovzkaK4kLa/+Ra5UxapPNQiKzxknnyUnHT6lh3JzgKYNV9I4Ka+PJ6a+Nq08QGVvucecyOTO0BKhXEhIJurV0W+MomSCDVF0NEgROGobmS7jqaK2pVXcAdSQWkBJxmYDvwXogLpu/5wC4WRchUMlo78mPoVn7vgcD2DXHo3oAw0C7PjAtsz5YBtz2gkkGOVZxX3sx+cAJ5uCKFpWHfMjTHgzca9TZpBhOwM8ukni9AZtR+CF6xUH7vhc7FC6BrmWPM7rPGB2svnppDxre+lLqv09d4DEPXww04aCs235Hwtx4F30JbVoOletBFCf7i9kRXs6otc475IVNvNBElpCuBvrsj1RYqURFCtFLr3uYYdfmEMMcN8fzm1ANdMVhnjmdqt+cbTXjdBJOhQ2RMnMqUX9uTz4wxAV3MfIwgCa9st22I/P7DkaAGHARoc3ttfsgazUOThKB5R74Axa3lw91GHQGUXxyk2h1vCO765LwyYPoKvFYh6t3xXZHVKQjwYBacwu5lzKG0My0FRlS+q5Sfa1uN9ebecE0/ocwE5I5rgOwGhcHYXPYaPTrX3Nst3TvP7kD6O7owrwT+Hdm++7KfX2T/BxpSnRKOIKeHAAAAAElFTkSuQmCC;" vertex="1" parent="1">
          <mxGeometry x="220" y="480" width="51" height="50" as="geometry" />
        </mxCell>
        <mxCell id="2tirW4YySyGKOFdSVdBK-24" value="&lt;b&gt;Managed Cluster&lt;/b&gt;" style="text;html=1;align=center;verticalAlign=middle;whiteSpace=wrap;rounded=0;" vertex="1" parent="1">
          <mxGeometry x="280" y="490" width="60" height="30" as="geometry" />
        </mxCell>
        <mxCell id="2tirW4YySyGKOFdSVdBK-44" style="edgeStyle=orthogonalEdgeStyle;rounded=0;orthogonalLoop=1;jettySize=auto;html=1;" edge="1" parent="1" source="2tirW4YySyGKOFdSVdBK-26" target="2tirW4YySyGKOFdSVdBK-17">
          <mxGeometry relative="1" as="geometry">
            <Array as="points">
              <mxPoint x="665" y="595" />
            </Array>
          </mxGeometry>
        </mxCell>
        <mxCell id="2tirW4YySyGKOFdSVdBK-45" value="Watches AddOn Configuration&lt;br&gt;Reports AddOn Health Status" style="edgeLabel;html=1;align=center;verticalAlign=middle;resizable=0;points=[];" vertex="1" connectable="0" parent="2tirW4YySyGKOFdSVdBK-44">
          <mxGeometry x="0.15" y="1" relative="1" as="geometry">
            <mxPoint as="offset" />
          </mxGeometry>
        </mxCell>
        <mxCell id="2tirW4YySyGKOFdSVdBK-46" style="edgeStyle=orthogonalEdgeStyle;rounded=0;orthogonalLoop=1;jettySize=auto;html=1;" edge="1" parent="1" source="2tirW4YySyGKOFdSVdBK-26" target="2tirW4YySyGKOFdSVdBK-32">
          <mxGeometry relative="1" as="geometry" />
        </mxCell>
        <mxCell id="2tirW4YySyGKOFdSVdBK-47" value="Installs Argo CD Agent Addon&lt;br&gt;Watches for Configuration and Health Status&amp;nbsp;&lt;br&gt;Signs and Rotates Clients Certificate" style="edgeLabel;html=1;align=center;verticalAlign=middle;resizable=0;points=[];" vertex="1" connectable="0" parent="2tirW4YySyGKOFdSVdBK-46">
          <mxGeometry x="-0.325" y="-3" relative="1" as="geometry">
            <mxPoint as="offset" />
          </mxGeometry>
        </mxCell>
        <mxCell id="2tirW4YySyGKOFdSVdBK-26" value="" style="rounded=1;whiteSpace=wrap;html=1;" vertex="1" parent="1">
          <mxGeometry x="420" y="530" width="180" height="130" as="geometry" />
        </mxCell>
        <mxCell id="2tirW4YySyGKOFdSVdBK-27" value="" style="shape=image;verticalLabelPosition=bottom;labelBackgroundColor=default;verticalAlign=top;aspect=fixed;imageAspect=0;image=data:image/png,iVBORw0KGgoAAAANSUhEUgAAACoAAAAoCAIAAAAHaf8HAAAAA3NCSVQICAjb4U/gAAAH3UlEQVRYR+VXS2xU1xm+53FfM57x2B6/CTa2IbikqV2SFMIjKQ2Jkw0kUYPaSl22ahbdJF2ky7aLbrpvlU2kqmqlSFmkVSNQqQI0EDUlVoCAAb+xMX7Nw/O4c1/n9DtjwNhcYwOLLnp0NLozc+/5/v/7v/9xiZRS+98t/jjQsFyGmkY0QjVCHuWkR4SvAksnE85+6VFJG/sNu4FSHPaQRpCHJl9qQsjyoj9xujB1puLOU86MRKvVvs9o2cPtNAETmzfi4eAlgDPe2L8ywyeypZuSaobOTINbnJuGYSS36K37WeMzxKxT4djM2iw82C5nK2NnZy99PJ0bD6g0dG4Cm3NL55aBa25ypusGT2ylLftIQ79m1G5sxCbgpeYU3OGzU4MfXp+9UmS0CsksDmzl+u2vug47lAWUUsa1RIfWepCk+4he86BYbCA9t+QNn5s49+cLU4MLjCg8jZHl8EoJ0xXBQl2Aa2yGC0a1UGjZYZkf05JnSPshlv4W4XZ0KNaFhySX5gof/eb41U9HidQpMTQGZKp26CuPFCpUKEKBBVVgE8E1BgOqeUgCsniVZEfD+l7W+2NmN0ZkxbrwIhBfHf/6wolLROMcoIyFMqQiDEkAR+E3tUis2YinwDYLSr6XFaEbBmGo4JkyE1bAVhqw+a9lzT+1HccisCJ+WqYJTo1/NeH7PqdUEuUhvBZEEBLaSdp7aEvf0e5Ek81NhvtDTxbn/WvHs5Pnck6BcCQjZYxxxnRGOajJjmmhq0K3Zq0LH/jhjSvTAlYQRS1FiBW9oqkzMfCL72z5ZiPSDe7dTnGpxer0+g6rY1/h7B/G8+M+ioHSphKjiceK88QrGLa5Nh3Xfl+2Dg8sTi3m5rJSBhLlrbo0Taa31R799YGO3S1GTAfDK+UFl4zoMdben3zx3a741qDs5h234EK6vuMFbnHBr+TEWt+rco1YoHpmeKaUL8IOrQqN882EOfDOnubt9Uiu9eoa+Ei2GF0vpjy55PoFNygvw1fKlcyodz9SNPmgfPrqtFtyOLOBr2RMSe93t3U+06awo1boh/m5/PV/j10+OYryIAMLEhBUFxSaZb5H5q+53S/H1jy6LvyNoRsqnyg4R8JQxG330Z16VWj3Lyh+ZHDk/CfnhUeautM79vQk6pOmZRGqh2WSGfFvfulmxp2gkuLWqvSLhg+8YGroBvxWSCgzhNa1Jtt3NYOD+7GXb2npannt7dcMy4DekXrIODyGv6TQ/P3Cqs2MnSo52SDRqt97QgQ8nJ6fnMvP5/G0glbHwKcGbkTTjuOAl0wnIy0TmvRKwc0LhUo+LC1uBj4UE5cmvLKn1EypFbe27mzb9b1uXEcCRP8otdAXzpI/+UV26JNMZjhkzMiMuC1PrSq/Ud4HYvLyBPg3TWv7c90HfvB8z7Ndiaa4yrRNrzAQ107PDH44uTQtwrKO7KdEzg+52pFVR0TAQ0cz12cQ767+bcd+9XrbjhbVRh5yhZ4Y/3zu1uUiJ5gGlHo0QbITKAGSmytuRMAHfnBrdBZUN3c31belhKo6dyoGIolpJ5B+WTUVux7RibbLKwf5mz4l6AjYaBqq/vsFWV4Iku0r6ouCd/1yvoyCc/nU0F9/d7z9yS12TYxRg0geOjRwOAm4lbBa+2wrpY69Hx/PLs24pVshpyi9quxXLWDoWV5x1WAdAW/GrNbutrHBiexM7tQfz8bitRYKnp4wjWRDa9MTT7V2Ppdu3x23Uzg2AhvW+I4YPZPxltB50HUMbNCAFhSr10HYveZGcGfYxqs/ezXZWIv7oAO37DpFp1J03LLTO9B08Oed2w+n4ml0tWhshGZ2qDh+ZokRo9pyDEYhPRBm9B5NxNIbwXOD9x3ue+GHB3SLo98IGQjhB8L1/crFv48szZVUI1hnATs35Z7/YLaSJdVpTLmuZkBT79gf7zxgr3kdiPAeJ2NuG3h74Mm92zWCAQPYXhh6fuDMXJ/96L3PZq/moKw1RqjqVhGLI86nv53MDHvKY/ihsA1u6Okd1q63atg9ml+2f91RE7Vv6sr073/6/sJ4jjNL12M6tw0eM/V4sqGu96XOZ4/1xOstVCY4JEKtkguu/G1h7PRSJScx/yitqaEDfVmP1fG97ybSO1eV2w3glwP/xcf/+dMv/+IWQ1jAddtgtqHHYYRhxmPJRENbqqYhBll5yKj5MHBQ4u8CA16lnBnXn/5RfNvLFo3qVhHKvxtWyLZ/oG/84uQ/3j/pYeyodv7qJ4IvRFa4BQ8TN6tO3MpR5a5KRDWHVHuFbtAnnje3vmBGYgPoQfD4G1nwyk9emrg4NvTZNQkN4I1SbTX5YAy4Y6gqampLDNq3SSUaIkBSXfrO1209Fp0juDVaencJwMGpltSb772RbI75oeP7Rc8veQG24wflIHCQmCGEKXwB0avX3eWsUBOK3cC+8f1YvCWK9DsAG8DjNljQ1dd15J0jzJAKFfB+GdgerAkroYJ3kZnIz+pUiLIsNBTImNYzEGt+2liTaXcdW77YGF5RxOiBtw7ufXMPYYEvgAdUeKycrn4GUqtiq6iojUi3fdvqORxfrzStsFsdYTe1MHme/ODE3EQGM61KRUza1Te96oumCQGiL0DtKHC17Xb3oVq7fgNhKWo3D4+7MYJGWbqirNtXSvUPerN8FO+jgB/3t03F/nFB1n/+/xv+v/7MybOos/TcAAAAAElFTkSuQmCC;" vertex="1" parent="1">
          <mxGeometry x="425.81" y="540" width="42" height="40" as="geometry" />
        </mxCell>
        <mxCell id="2tirW4YySyGKOFdSVdBK-28" value="&lt;b&gt;Klusterlet&lt;/b&gt;" style="text;html=1;align=center;verticalAlign=middle;whiteSpace=wrap;rounded=0;" vertex="1" parent="1">
          <mxGeometry x="467.81" y="540" width="60" height="30" as="geometry" />
        </mxCell>
        <mxCell id="2tirW4YySyGKOFdSVdBK-29" value="Registration Agent&lt;br&gt;Work Agent" style="text;html=1;align=center;verticalAlign=middle;whiteSpace=wrap;rounded=0;" vertex="1" parent="1">
          <mxGeometry x="455" y="590" width="110" height="30" as="geometry" />
        </mxCell>
        <mxCell id="2tirW4YySyGKOFdSVdBK-32" value="&lt;br&gt;&lt;br&gt;Argo CD Servers (Redis, Repo)&lt;div&gt;Application Controller&lt;br&gt;&lt;b&gt;Argo CD Agent - Agent&lt;/b&gt;&lt;/div&gt;" style="rounded=1;whiteSpace=wrap;html=1;" vertex="1" parent="1">
          <mxGeometry x="420" y="740" width="180" height="130" as="geometry" />
        </mxCell>
        <mxCell id="2tirW4YySyGKOFdSVdBK-33" value="" style="shape=image;verticalLabelPosition=bottom;labelBackgroundColor=default;verticalAlign=top;aspect=fixed;imageAspect=0;image=data:image/png,iVBORw0KGgoAAAANSUhEUgAAAG0AAAByCAIAAADWGshPAAAAA3NCSVQICAjb4U/gAAAgAElEQVR4Xu19eZAkV3nnl5VH3UdX33fP1RrNoUFokAZJaBBCh8E2wiDEYcLhMIpdm4g18uoPYxwORWws7C6BsXaJhUVGgEyYYBHMIiRxCZ0zSGIuHaNhZnqO7p6+7677yGN/L7O7OiszK6u6u7qbP3hRMVP18uU7fu+73ve+95rTNI3+kNaNgGfdNfyhAobAH3CsDx0I9amm3rVA2mjE4R9FI3wrkz0ccZh/DyMBjuM8+PF7kH6/cMwXtZys5YpqvihnilxBpkxRzRa1IuBcTgJPAs8FJY/k4bwCF/J5RJ4LiJxfBLhbxl5szrd8OnMFZS6rzaaVTE7Nylpe1kBlAEsSOZ4nr1hGc+huvqgqChWAr6zJqsZg1XH0e/nWsNAQ4LlNJ9ItxjGZUy/PFWYWlYLCJjQa4qNh3i96RAEsC7ZlLIxvqmmuAarO9Uv8DiizoNmMuphRcgUVmEb8fEOI74sJfmnzyHNrcASfJrLqxenibFoGWGEfH4vw0aAAnkWyCsRq/GIgjreA41xCnksqABdVbWuSumKCV/DwG4/nZuMI8TefVsYW5OmU7Pd6YiE+5OfxxYCvGmLVnwNTRdUW08piSknnVNKoq0FojwhRP7+hwnPzcAS9zKTkoTl5KiFHg4wAQz5eAP/qBFjfZKCZK2oLCXlqQfaLXEtU2NnI+6SN0qubh+Pro7mJeRmqo7vV65cg9DZJFxRkdWK2CGb3CdzeDl9bVJcd9U4bjiNURCKjnBiGMaO1x8XmmFjvIVSvD1MGuTk6U5AV6m0SdjWJXrHOaG4sjopKVxeKl6cKAjirQYwEeDsLQ//6PFxBgwVTERGzvtY1eMWSlR7glWxenZovQnQ2Bfldrd6ov57aZwNxVBTl7KQ8viDHwjwokefRlsMw417ODxxVmoNVqEMJ1PJQFsRsQ+MFy3sGjIKHKWov9EdtsKI06ptPyeMzRfD49hapK1o3cblROGYL6qnh3GJO7WoW42HRhYI6l+liMavMK5RRFJnZhww6J9hXZsJAD3IWugpQhpnNWZPKSmaVy2N5vLK73dsXr4+c2RAcM3n1jZHcfJaB2BQVHcmQJ03FCpooziuiiDLalVQxYxCkA9XWlCV6PCGBB0CMUisnPJQV7dxQDkS/t9PbHXOb5srVlD2pP475ovLWaGE+p3a3SI4CEcMI8hTkVNjgs/rCDiMvalqB8XIdEoAM8Dy4XrepnBOeYFk5OJGH6b6vy7d+Bq8/jicHM3M5rQsg+h10op9TfSKPFTDGt1jQhjIF1ZFcnYe/ilzgCDQhPSu9AygB4tBEAYbRNW3rZfCKzVRq3j3/9NXcRFJti4uOIAYELuZdAjEtaxPMFqoLCTp0CmSeLMoJuIwqJLTskzzb2r1QVgMThflMZXOhQg3m7LrhCJ68OFMYX5ShmhsjVj2IZiIcNYhQCJys0VBGGUjms1Wloa44OFX2yAUmTvGB51EucCq+6G4M14QpyqvqLHxwFQQGoMS6oLddwny+PZpLYR251lQ3vp5Nym+M5oMBvqdVYsM0JZHTYoImCQzcjKyNZ+UkDOLKSQPamiolZqTkrHf2qpiYErMJPpcBoLLg17xSIdyci3flG7sL0WZV9KKwu56G/PXzvB++IKdGMR3wFQ2O5Ttjnj0dfggEp1JV8qyEU6V4hcfweg1MF3iBA0dbOBUgwkozQEzk5bGcmrPAXFYnp3k8gYnLjedf9l057ksuCOl5kvMrRTABIDOPoEqRfGNjrrEz0X94sf9GVfS5mEkgx6zCXMFBw6FUPgp0GA6n5pgwsiA3hZWONRmV9aHHK7PFgclCT5sULtctYOdGUTVAnMsoIwUwUIWpgPktSEJ6setX34hceEkAXqpMHCoopw68DlJeEgiMu1VRLMTbJm//q9k9tzL2r5xQEagyWGFFqKralYl8OqveujMQ9q1a3NUBx0yu+MJAHvPZ0SRZRuETgCPrE0AczhcrjxEoqvHzr/Q8+3VKThDvdysJKIvMIVaW1MTidX869Ed/rQQijM0rJAalwAecGBzcPZeUob5bIsINPVipVqiiQvZ6cYRBe2okB6fszk6vKJRNI7QzFAvaBTsPZivJetYvMb3Q+tsj8dd+4CFep8FqCUBhNW6B0iNn2/pH73wg1Xudy/uGrASUjmWGJ/MLKeX6briFVifxaui0Y4PLmVMpZTapdDRLkk53pRSEiaODCMUCmejCzp5cpuvX32o6cQSGsw4iFtY2jCx9QCm7YagK/rGB7p9+OXLplOqpiIIhKyvNKlgKZjwEJfzNruO2PlwXjgVgNF/EujYWLHPkgEewNQIU0RloZxfFApnY+8zXImd+yVwIeAP/SAFq66ZYEymucgAdd2A93js30/vEF8Kj59yhXCw625Uwg5obhNmUnFilObkuHCH15jJqH0zZ8iFh2WesWEazipuJw3G9v/xG9OwzHK8LVoAYCtGBA9TTTf07qW+XddLNv9Ei9hIdkofPe7Z978Hg5GWHh8tZsP8dTXSYEjB+4ZqCu8+82etSlfFo7TiCNSYTzL/tFXW7eDkJcL3oA8SKZb6yboGR2PC7l2Mnj5AYLo2OdvavVNTYRIGIVQiuPIb1U5H1hKza9txjkBjm4pbvBVWFd85eAHzdEOank3KmULF++1vrwFGhqaQC36LFuRKROOzHq6o6lnFhTE5anGo68RPeMhLJqvFdrMKlsAr7mFiOFhp6PXbhmIvuBkiGj85eQUjfAb+66NJ/60trxxGbVqgMu33mKrEnB6cscqbzasbF3tbUyKUTgdFzZdoZBvHY5EptmQxlU1UWf46czarg+Fyh6dSvONkNC7CUo8IJSJ6Ajx+ZdXvXAuTacby6KAd8Hl+5mm7g2IJPVtQ0pEtltvAohYazRzm1fHXo4WlskMYnKJ+jxUW6cBZGpaW7q/nJBYZPBMYG3GcCdpu9m5CPYb8Hj+AuqLHFNeIITT2fUtCYZVMYHlk0nFK0lIulA2N4cig0fIIFO1kSBjV8iU6foPNvM8nooJGtb7j+5jteelwxlFiFcllEuNi6il5EgjzQHJqrlSRtI6nQniV7JMHiICBHzPmwGcHT6FVS1mx9WykIi6Tx7Eu688YJJ1AlrxuSTg+tvatSRgoM/tabmLG+Vf4bbnF7AQQVwWEBDxCCjexP7TlrxHE6IQMy+O9KXGGyGbX5yl4/9EDz8LE3f06e+myM2IdUlqOpDQPHXWxJFM4h5sqWMJzGCA/pmc7XG0dsoSCeZGCqODJfTGZVi0sClGEQR87VGYEOS4lZT2q8pvWfbXirzwiHhs64vwWcHE1F+ACRf2mmcGm6OJ/KG1tvlaqquH6yv5DJySeHc8iHoQM7tiVe9i68gMbifloGjTtwilEhzEb/AkCswpD21tecI01d9sB15JpgAEUhTEwJfBbwMssDUTQTi0U4jW/f5QkiNrBCWgVfI7ATlcCyMjCAxWNWddA4xpO0u4/Ww3sXp2CWVOhP/bP5zJTH1fpBk9jptTcMr5AReokhY81vDN9ezMhZBT2aq0DVaMOcY6BbLFbfcuGzaSYc4VfNe0jxkEErABbzE1CJdxhSpd6X5WvYAyyfHgG1qSRnarGf4EqxBxRAARRdyaLUgTXiCNRgtJTMO51CmZ0yr2EkDmK71B5fyAmJOZoRCRYSU9kIA9dFK1OaOhD4FVRIQn5N6BHgK3rYi4ymzHOAfAGzwsGCyWVUyetSHWQfdnL8MBXKk0/kFjStlvDeNeJoRCyWGoUgCevU6aT6VromLsy0vnAk/iqUtQApS+19FI2QL8J+ZhdoYYEmRymXpZREXoWwUyBUo01QdBZEDaLLKdEmvqWNfF7mUsvmKblIU6NU5MQpru/I14fuuD/fvRPe1kpoOkp0CZuJtaU14mjfDDIsckdbzOgJn0n1/Ph/h86d4rJJuv5WuvEw7dhL0QYSvYy281lamKOhC/Ta8/S704zlwe9BlcQKI8e4gWAOxQrU0k43v5+27aP2TvIFIMIpl6eFWRoaoFPH6PWjwbde7Z0YHPvEg8m+/Y46B23YrXF02+JUdYF0Ff5w2IyvDmZB5FDWzVGhp81b4mv0vE3f0xhIFh31DPyM+x97WHzzN4x5P/JXdPiDFAg5aG3QSzpJL/2MfvwoceB9lfG44zZfWgcRPsr+A/SJ/0hd25j1bkmoLZOiF5+mH30LZpbs8w089L/y0RZrMf231+OJlEeZYnJTWfXcMBsyVo+H+vzNtv3kUlWr0Neld5ggrJXe2UswvNufe0I88Rwb6oc/TXd9hIJh5ypQbyhCH7ifPvwAKTlwJeUh+GwDLyAf4hnRjDvor/+Benc5gIiXUBsauvuj9PH/QIIgZFI7Hvuv7ju05pZWtbhfC462YblmcJxv8mrTz75DviDd8B66/cMklFlhuVwunzftrBqVffB+uvNjTNwyvMonDbAWdB0HB+XnvkjRRnPzsiyn02l47VYyMXmH/5huuZN4UZgYajrxHGxY1x6v5aGNF2qrpDZjYKmu+JvHmMLwB+ju+xiBLCcYST/60Y+eeeaZQCBw3333HT58GESz0v5df0ZnT9H4MGVBpCaaVKDWOeYM//O/tYA4NDT06KOPXrlyZefOnQ888EBXV9dSbZKP7voonX7Fk1wMnzk2t/9mFWLUgc7LBr8qnlsLjkxEOqo3pzng0knp4mkOamT/TYwBTemb3/zml770pYVkEvT25JNPPvvss3v27Fl5HmukG2+jH3+H8hJTOCWizEAsKrTvAO241lzb4uLi5z//+aeeegpdQw9HR0e/8pWvRKPRpTItnXTz3fTU4/7xId/USKa3vxqMTCpkC242nLn1NVI4/GZOoGFbprxCjpPSSV86BbuE3v0+s0xMpVLHjh1jIKK/HLeQSBw5cqSsTvBj904KhZlEM7M2MzoV2rmHqWZTmpiY+H9PPsmMaY8Hoz99+vTFixdXnqOVQ7dCL0mphG92rEYpWXkn3Dr6NeIIK6HMFEN0t8zWJfYddim9KGWSrNm+ndbGAYiJsMHm1gKRBgo3sExzY+BrQaKGFio3m5mQXQ7k1d+wzXRrL/lChIVAcs7OUI6hp3mEW9eW1ogjDkzpATNLCVyX048gIzrU0i6vqfiwTLEsSiIYDN5zzz1Bv1+RZXy6Ozvvvfdea59FCXqWZZbgNtqEvPMHLRq/p6fnnrvvRigVakNXbrrpJkjJsgqBO95SVb6QMULXSk8hM+z74XgKNeCIr7WfICB7Vi05sKcQAQrXmTHrGJ2iCzA9eqbMuSIj0I6tV6wJ7Hz//fdj8D/4wQ+8Xu+nP/3p/fv3WwspsnWFZEhJez4RROEjjzyC2k6cOHHnnXdiVlaEY6neHKbbI3vDFlc8OoPdOWvr7EAoVp01JfsAa3oNhbLlLkiDYtAhGLRYq5Zqkf1B2ReAg5sGL9J1B821A7736qlik4l5SiXYBLGt6mXyhyMDG6oz4wxi0xY2mu7u7n7ooYfcasssUCAmByJ208eOV76g4ahIxdrKHzhMQqU3WQC7figDA8I3dnrPlCAwDfTi5lOmkJvhWAFiDnF1p47WKN2XagVMVy9TapHxr3mrGi4c5AxdhKSr1FXn/FMvgwyLwXAh3mqRCRiZxdmDFlJwlGNQUHL6DBrDd655Vfcq4MR4b1yMBj19jXxTWACOZusHEhlnidBMVA/rKSU5GM727dGwiH7zKE1crdQPh3ws6d54lbnNvQjgMz33aUxOnDlOk8MOb1XKSifohacho7MtnbnmTsuMBmyeHlSTzqiwn1qjAoa8o1nC8CvVjXy3Z5bXJIHb0+G9sde/u82HYyeYK5wnLxmrIE6DPhHVYQnXnD94uwL9k0zRL56wyjuXrr36HA28xXCE48ecwOL4ZDOFf3/U5W3rI4A4MaLxYuraQ2ARy1OcLbaWxzGAjAK/2f52AUO+ptWL4dvLlHIc3ncpDTcPrjIAhTcGmF2RypaZqWnIRQ1j1GLlvthMc/f84Y/BMaMcf1EBOpZta3t7UCPnT9O3/xsJXvJBS5WXwE+Y5YIo/e639JPHqWBbU1oqhLVw5hS98CQ0dS4cmrn5HkuQhQRXVXkTBlNj/xqKFEdk9SHbe1mWwz/88MNVijg9xuYuIqRwMBf7vMsbDaRwXMCj4ZwafLBJeSVWD/1O7rouODnou3rRc/kc+fzU1kmwaRwT/D2v/Iq+9T9I8DOnGWxt+xhYDhrx0bmTzCRq72WLTsdULNCp39AT/wfEKIeiw3/5T/mmdosXMizoJ+zK00JSSaSVve2+oH42vGpaI46oF9FRV+eVcJDHNRulZsDsAcGDA0B5RcuV72End1znnRvzDZ6jC2do5BK8BtTQVIYmdlHOnKSffo9efIoQVwdTIlRhmwENgrXhDYL7ffAC81qiLbgyzSscaKGBt1ltzx6h6fFiQ/Pon/1NYvcNliAOIIgOl0jBGAhWGdML2CDhrm1j4ZBVQUSBVfgfLdXh8MtvLmcbowKOApvXDsZ5wWReHcyWx6bgFGAm1fXM4w1Hf8KBYUUWfU8dO2j7HsJKZmKYBs8yJsUSENUBpgiMYNchQB7nEEGP/QmNIODwStdO6u4nr4+mxunyW8yVicVCMZ9r67368b9L9+yyqGnUjnN0iHS2NANNfWUs39soAUfXHqw8XDuOcOafn8xPp5XtHdigXJk0WOItuumD84KLRes6H1vyTadf6nn8YRKCzICCI9aYhFIMBaRCAOdaajXcGFXCp8vQZ8tMgmxFQn9A70geLXfNOy5+/D8XgzFrOJG+gRwRhfLrWNirE3NFfG6/BvusNREj2lm7HQ7Ri0teEBmAmABzPC7whQ0EJHv8nvOKhjBD85TCrb/Q/46eSJoEH+V1xoRRwyxS0KDu1AGC7mRorg7fIUNBufBIsllBVcvOTVgIqEfMzO+7sRCKe2zRvWgKd1ZYQER9OHc4syjj2oDy/VBLq9afa8cRNUX8nuYwPzFTCPsRA7A0dZBUiYKK4HAYQJ0Bbiht3YnVjCBHuCSNbSxjnVLrxFsHwH4DL58+W4wk9QKozagQZ7nA5k5J8HhwDMTyBIOYXcSZUa0jgstbVtGnVU29tTvQMO1RkcWeJVnYVCkhkNU4yBIRPe04+1GeNMtGSmnM1upX/xtVYUD4lDqjqbI36FgRONqipfETtg4u0WgOeppCVogdKyllrgtH1NIS5pvDwuhMER6gUrdAEwtFcLROFrZJVZiS0YXjpiQ5ELUwNXoUE+0MzQT14EQB+rklJuEY96p6t7rSjlXvgXHAcRDM5tMd6NNMQUUAHz42JMGGEZcYIMdW1pgJP1oQba0kdAaHiUGL9gpx5UIyo7RGhDUcx64Djrj+qr+Vx71DOI1k7hygTBQ1MA/6bel1MdxqH4Y1pxZnNAKgzDaXtQr2W8ZBElOCWGTLVhs3YI07PS/7JA5nsZ2qqZJXBxzRQmfM2xrmx2ccjvRD/4REAWuvssEEsFtQ2bKBbv3jv6FQvMoRmmKScHQrHneH0hyPaxg69tUL+jabkHEdxIF2ISg5kGoVFJ3WXFVfcSgAhdOlX5gxOu1wUhL9whY7/JKlDqb8DW6D14pXMhr97dfZvpgGiitHHASIHCzhb/qI/Kl/zBUqxtKxjmJLLsD0DJoGfI2Wu/v0oWCKccPQ1Ly8vUlsCK2FGFklelV1SI1Bvr9FwuG8iTkHKNFAWBJ8/NIhEcWH3Vcba5V64fG+/vT3VdDjX3yZ3v+X1Lmdxa7Au6HCaFcpEqe976ZP/hf6yIOXLpwrzF110GWlqoQQ6NGQiXGvM+IAEdenxIN8Ny7HWSseVqNkPYjiOrZsQbs4VUB3sF60VIXBYNdBlLlFmBdM9luXOivlPbwweOr555+/44476I4/p3e8j8YvU3KWsADHBktjF3XsZF+I/vWRr365yxkdVhsoN9hggAiZ6MiuWALijKvE0+5WIVSbS8IRIutoHQvVmImuwt+Jg6iD+pn2eJgvX8sw5oKnr5nTZG/Iyq3lbdzZ3/uuz33u+9///r59+6i5i31AiaBgmFHLltQXv/hF5fxR6j5QuXu4giLQggUPtJ1TIVwyNDJVgMV22w4pHKg8H07vWvLWSscVqgZf9LdKPY3i0Dg7gGs3HvEeCAMRPxUqWMqGBGjJzXzmM585evQo4kyYsxMOXUgyjsP27OTkJEDENv+9125zqwfTGGlFc44g4pqU0amCLGs39vrCgVr9EZWaqyc9Gm3A87KzRcLA4TLpbpXiYWsTTE8gVqJaevCdXR97+swnP/nJD33oQwcPHozH49gXm5mZGRsbQyjLK6+8siMWuK2zzDa0VYmld9yWyQgaV0qBElVF29fpxR6Jvcxqc+pQhb1J3B62qxVXE9LwJG7HYUF+ZgsSOHqCy+Ei9peXc27pCN3eHXthZP6x73zn29/9bjgYNHA0lk0ImnjoYHvlt40nWkpyABqMMjJdwA4WQGyP1OEyKTS2ITiiXkC5u80b9nreGs0VCuxuKRyPKolLn9/PwhtdE9Zmnz3Qfm42PYXNT45LZjL4YKMV5gt2Jj9xbfO9O5tdK4CekfO2nXOYEzBxsJ65aZsUgl/Mkeer1OvwuM7y0dwCGLwnLhzslbCzeG44h39Llg7HvI1VphAj/EBf7O9uwL2sULwrRhJ6fEdX+O/f1R3zVqkBQCoIRNETaoOXG9cmYP2K28Leg8s8Aoxj6pWqdmVdDcFf3xb1IhoPV0CeH861xJjzHEe2CzhYjf0Z2DHVhvLZA209Ed+/vT06m1Nxu02Y1/a2NXz2QGtfuCaDGYYBsAKCMBIn54rYkN7VAjUoYetqXQOzvbyxOBrN4d7KUJdvIiFfni3gxB7soRbAJ/kZjjWkP9kWu60jOJtXsOcDU6or4uwHc66psQULPlxGigtlWsIC+AMOMctujPOLq8zdDBzRJWwE9zaKWPMMTBXgZFvI5VoQVFJzX6NeEZ+ai68UnF7gR8QCtp73dYhtUcm8JbeG2lxe2SQc0QMwEu4XemePby6lnL8oKFKYzybKfK4u3VztI4hTJlHhHuG7G0VciLvRd7JvHo4lKOIh/lAXpyBCF55J7E9hZwYY10teGQgu+Ty5/f4EddQkSVc7U5byG6ivXXrGnTwmpOeWlIyBJtuicnmjhkd4HZWwjcPlOYFJcOSx6uEbNdRdtchW4IgQsv/7NX0jpRw5QLA2NEsI2okER7qef7oqCusvsLk4YiGG42rf/mdm/2PwoBv73TEGmnA5LnGo0xhLj1DMoEErgtjF1aPKxQA98Q06e1oP8lsnwTv1ZDlv7XEAbrWan8FvmErR/DTNjCFuT3njuOfyWQ7nhnG01b/soMUAzZH0lqrZbcTlyWnLZ6kECy5aLgyIEzwLWQlH6J23UPcO5jfCGUScPUEESzXT1dqo6++NxDGbobMnafA8XR2g8REGJU4M49YNOHsw1IiXvCaPL6LHEQGRSaxIN9d+Wx8Ca3iDsFWdT6/oLNQ5kdX9nIizKDJBieu+WjqouZ16r6Vde2lbv/NBMGvt1X9vJI5YTgM4MBQEIjsrPI2gLxq/yszvfe+i/AQd/SGDFQnLvlCMRenNTzA4DPpjzFtNixtiwSiFtWZDG00vu8eB2vbr6fq76PhrlEtTcwfFG6mhmRqbKRonOEp8PkK8fp2ociPtHiACDsIHvbckQPzyD8vygjHds6tDaODC/l3maDNnV8IWk4HVNCpZumwAcxOlA7fSTXdbW9+A35urZ0oDMNaFpdsVMHhA4OLcBXalTyUUEGQSNnkbUSfOrjudQqhUwXrytwhHdBnDNvMUdmLNOAKFQNRtT9EYdFkZhVCJOYFtLZG264HK9d0twhEI4vgrdgFLCR6gMhw1ine4WSoGp5vLgGBRifkGERa6V0kKuKKy+odbhCM6iqs+Sk5WnBdEGF/IdOALmIYaqt/PYS7DIvLNoRMqefWbBjYlbVIzDmMB08EFWXLQ+mAPQXfrZIZMkCo0eFXLOQYNVtJBCAQEcCUCxF/sw5UDmzTATWrGAUd21cdy62Bzf1iP0DUsc40a4swYrIoj6HHlGN6y8WQ0BgYHrJvE1vWLp3BAyj0LMIEklxJMaJy7XIYVaHoblkzLipXoiMOiWoJe3zqAnmHHIJaNJwSs1sk8rNiLlQFULbJBBTDCEnCgHfOYwdcwJ6smWDmWkFT42CEQDEbHd/D1ZhHk1vE1iJEdFNAHDaGGI9X4LCWNmOCrIQVMcBs2wFIUM/wUguUijBqqW3uRjVzPuPcKChofI0GQYYG4cuWTwpR1LSyJOCHzviObG9g6CDTAeQXguN4oCfcRmJ9uHT3igPrSrR7QzgDRZPRA5PljzG2BoL1SYmEY5uUhLHmB6SKm5fUEQJm+Xt7GwVPj6Id5uBv2fQtxxDVHhpMCpzMQMW6s4ZY9aUEDVhNwsNvxsSRQH4SsgS/oFxOD401GAnWv6DHre3X/vXU4ArjS6XSQlddfplvMgg+DBoXCddhjuiCF2ZhYWcKPqa8FATgIkwlZna/xAaybZYSj/a3DEYNcGifsZ7GMdsChgLUs4Y8ptVDfdSvQAEdcjwBi9C7fxAPgQODsp240Mr7ePOm/RTji9NpbR2n0sj6R8Hf5y1wMoCzL4SHgFWuj9u1lfwuA013CMOANvsZ3zAeuL0NhfKZG6PgvVn1nQPns1f5r02ZMI1xMk88wj/eFU3Ti5zT8Ovs7M8yE5Gj7DcyxaiSAgkxQlllfw1/b3Est3fi7PdaxGUQNxjc8FHveQ8efonyBXWb44nfp9C/p0J9S/zupsZvNFhi/FjPA2kb13xuPI+6knxmlhSkav0SDb9MIDrVmmZXjjzP+gy29bS+9+0Osp4hcNuQMRB47wW5ygiE+tWsXNbSyey7yy5fcQ6tAwjL5CBBxwWmBTdWO6+h9f0Fv/JrmZ0hG4Qw99116/t+obRdtP8BOw4Jg420sLrK0Cj3iyqMAAAKUSURBVKiOUvUSG4wjiAtjAxeDaho7GEEd+pOVToE0Ik3s6DD48eLrdOZ5ZrXA9wMjHCaL+RZB4BhvZ/KufTedf3XJoDGsxcY29gpexA0Ux39GN9xJ7/047bmFcGlU0XRVAGL02f0q+iWo7JBtnVc6G4wjkIJzHx9HbsJGzcQVeu0ZevtlnU6x7YVdfJWufz+7HbKUsAnRtG3JJ7b7EJ0/BkNp6SHYf/ct9Pqv2fU0SD/9n/TqEbrhg+xOzb79FS8JYKKjzg6MDcYRYzP3GISJLae5SbpwkobA42cIURWgDV63n2HHhBrplvvp0AcY/U5dXaIZrUh91y8Bh30+8C+P/SmcYbzCiP2ag3TfF+gX/0rzV9nm7fQwPf0vrDA2C9t2U+8e2n0Ts5kgfw1z1dKlpXrX+99G7hfa+4aLzmbH9c3VZQMbstJw2EAg+kPUvoMRUXKBLp2kI4+w+46AVzFN/+kxtlOKhL3c//4pVgOAVrLsdM3BDzB5hxmaGaHZiaU/0gfZZ14gQSBAqsByqjcZloa4uTjakTXnYKd0fpIuv0lnXqSB00yKAQ45S++4iz7xhRWL59iT9JOvLhk3WDj27Kf+g7TnZsI1cOU3dLq3Vt+nvwc4QvxNDtHZV+niSRo7y/4QHLgVRAqMAOL199C9D5YdO8AdFseO0M+/oasvfYcH7iIsByET9txGew5R397NtMCN+dg6HGEPDbxO516js7+i9BWScHeKcbYArhost/204yAduJ3ZMbZT+6zrUMev/Ywunyb8lQHAbfjfigkq6H/dY/eHad9h6r+Bqf4N42UzRW8djiBDhFqwGBUn1QlDx3bUwNzvle+gSsuxMeMZMiFDS7rF+eW65W4djnUbwu9FRf8foKJGfqBKmmMAAAAASUVORK5CYII=;" vertex="1" parent="1">
          <mxGeometry x="425" y="750" width="47.81" height="50" as="geometry" />
        </mxCell>
        <mxCell id="2tirW4YySyGKOFdSVdBK-40" value="&lt;b&gt;Argo CD Spoke&lt;/b&gt;" style="text;html=1;align=center;verticalAlign=middle;whiteSpace=wrap;rounded=0;" vertex="1" parent="1">
          <mxGeometry x="472.80999999999995" y="760" width="60" height="30" as="geometry" />
        </mxCell>
        <mxCell id="2tirW4YySyGKOFdSVdBK-49" style="edgeStyle=orthogonalEdgeStyle;rounded=0;orthogonalLoop=1;jettySize=auto;html=1;entryX=0.556;entryY=0.969;entryDx=0;entryDy=0;entryPerimeter=0;" edge="1" parent="1" source="2tirW4YySyGKOFdSVdBK-32" target="2tirW4YySyGKOFdSVdBK-9">
          <mxGeometry relative="1" as="geometry">
            <Array as="points">
              <mxPoint x="370" y="805" />
              <mxPoint x="370" y="410" />
              <mxPoint x="499" y="410" />
            </Array>
          </mxGeometry>
        </mxCell>
        <mxCell id="2tirW4YySyGKOFdSVdBK-52" value="Argo CD Agent - Agent&lt;br&gt;Watches and Reports&lt;br&gt;to Principal" style="edgeLabel;html=1;align=center;verticalAlign=middle;resizable=0;points=[];" vertex="1" connectable="0" parent="2tirW4YySyGKOFdSVdBK-49">
          <mxGeometry x="-0.6349" y="2" relative="1" as="geometry">
            <mxPoint x="-8" y="-4" as="offset" />
          </mxGeometry>
        </mxCell>
        <mxCell id="2tirW4YySyGKOFdSVdBK-53" value="Argo CD Agent - Principal&lt;br&gt;Listens and Waits for Agent" style="edgeLabel;html=1;align=center;verticalAlign=middle;resizable=0;points=[];" vertex="1" connectable="0" parent="2tirW4YySyGKOFdSVdBK-49">
          <mxGeometry x="0.6611" y="-1" relative="1" as="geometry">
            <mxPoint x="10" y="-1" as="offset" />
          </mxGeometry>
        </mxCell>
        <mxCell id="2tirW4YySyGKOFdSVdBK-55" value="mTLS" style="edgeLabel;html=1;align=center;verticalAlign=middle;resizable=0;points=[];" vertex="1" connectable="0" parent="2tirW4YySyGKOFdSVdBK-49">
          <mxGeometry x="-0.3421" relative="1" as="geometry">
            <mxPoint as="offset" />
          </mxGeometry>
        </mxCell>
        <mxCell id="2tirW4YySyGKOFdSVdBK-56" value="" style="shape=image;verticalLabelPosition=bottom;labelBackgroundColor=default;verticalAlign=top;aspect=fixed;imageAspect=0;image=data:image/png,iVBORw0KGgoAAAANSUhEUgAAAG0AAAByCAIAAADWGshPAAAAA3NCSVQICAjb4U/gAAAgAElEQVR4Xu19eZAkV3nnl5VH3UdX33fP1RrNoUFokAZJaBBCh8E2wiDEYcLhMIpdm4g18uoPYxwORWws7C6BsXaJhUVGgEyYYBHMIiRxCZ0zSGIuHaNhZnqO7p6+7677yGN/L7O7OiszK6u6u7qbP3hRMVP18uU7fu+73ve+95rTNI3+kNaNgGfdNfyhAobAH3CsDx0I9amm3rVA2mjE4R9FI3wrkz0ccZh/DyMBjuM8+PF7kH6/cMwXtZys5YpqvihnilxBpkxRzRa1IuBcTgJPAs8FJY/k4bwCF/J5RJ4LiJxfBLhbxl5szrd8OnMFZS6rzaaVTE7Nylpe1kBlAEsSOZ4nr1hGc+huvqgqChWAr6zJqsZg1XH0e/nWsNAQ4LlNJ9ItxjGZUy/PFWYWlYLCJjQa4qNh3i96RAEsC7ZlLIxvqmmuAarO9Uv8DiizoNmMuphRcgUVmEb8fEOI74sJfmnzyHNrcASfJrLqxenibFoGWGEfH4vw0aAAnkWyCsRq/GIgjreA41xCnksqABdVbWuSumKCV/DwG4/nZuMI8TefVsYW5OmU7Pd6YiE+5OfxxYCvGmLVnwNTRdUW08piSknnVNKoq0FojwhRP7+hwnPzcAS9zKTkoTl5KiFHg4wAQz5eAP/qBFjfZKCZK2oLCXlqQfaLXEtU2NnI+6SN0qubh+Pro7mJeRmqo7vV65cg9DZJFxRkdWK2CGb3CdzeDl9bVJcd9U4bjiNURCKjnBiGMaO1x8XmmFjvIVSvD1MGuTk6U5AV6m0SdjWJXrHOaG4sjopKVxeKl6cKAjirQYwEeDsLQ//6PFxBgwVTERGzvtY1eMWSlR7glWxenZovQnQ2Bfldrd6ov57aZwNxVBTl7KQ8viDHwjwokefRlsMw417ODxxVmoNVqEMJ1PJQFsRsQ+MFy3sGjIKHKWov9EdtsKI06ptPyeMzRfD49hapK1o3cblROGYL6qnh3GJO7WoW42HRhYI6l+liMavMK5RRFJnZhww6J9hXZsJAD3IWugpQhpnNWZPKSmaVy2N5vLK73dsXr4+c2RAcM3n1jZHcfJaB2BQVHcmQJ03FCpooziuiiDLalVQxYxCkA9XWlCV6PCGBB0CMUisnPJQV7dxQDkS/t9PbHXOb5srVlD2pP475ovLWaGE+p3a3SI4CEcMI8hTkVNjgs/rCDiMvalqB8XIdEoAM8Dy4XrepnBOeYFk5OJGH6b6vy7d+Bq8/jicHM3M5rQsg+h10op9TfSKPFTDGt1jQhjIF1ZFcnYe/ilzgCDQhPSu9AygB4tBEAYbRNW3rZfCKzVRq3j3/9NXcRFJti4uOIAYELuZdAjEtaxPMFqoLCTp0CmSeLMoJuIwqJLTskzzb2r1QVgMThflMZXOhQg3m7LrhCJ68OFMYX5ShmhsjVj2IZiIcNYhQCJys0VBGGUjms1Wloa44OFX2yAUmTvGB51EucCq+6G4M14QpyqvqLHxwFQQGoMS6oLddwny+PZpLYR251lQ3vp5Nym+M5oMBvqdVYsM0JZHTYoImCQzcjKyNZ+UkDOLKSQPamiolZqTkrHf2qpiYErMJPpcBoLLg17xSIdyci3flG7sL0WZV9KKwu56G/PXzvB++IKdGMR3wFQ2O5Ttjnj0dfggEp1JV8qyEU6V4hcfweg1MF3iBA0dbOBUgwkozQEzk5bGcmrPAXFYnp3k8gYnLjedf9l057ksuCOl5kvMrRTABIDOPoEqRfGNjrrEz0X94sf9GVfS5mEkgx6zCXMFBw6FUPgp0GA6n5pgwsiA3hZWONRmV9aHHK7PFgclCT5sULtctYOdGUTVAnMsoIwUwUIWpgPktSEJ6setX34hceEkAXqpMHCoopw68DlJeEgiMu1VRLMTbJm//q9k9tzL2r5xQEagyWGFFqKralYl8OqveujMQ9q1a3NUBx0yu+MJAHvPZ0SRZRuETgCPrE0AczhcrjxEoqvHzr/Q8+3VKThDvdysJKIvMIVaW1MTidX869Ed/rQQijM0rJAalwAecGBzcPZeUob5bIsINPVipVqiiQvZ6cYRBe2okB6fszk6vKJRNI7QzFAvaBTsPZivJetYvMb3Q+tsj8dd+4CFep8FqCUBhNW6B0iNn2/pH73wg1Xudy/uGrASUjmWGJ/MLKeX6briFVifxaui0Y4PLmVMpZTapdDRLkk53pRSEiaODCMUCmejCzp5cpuvX32o6cQSGsw4iFtY2jCx9QCm7YagK/rGB7p9+OXLplOqpiIIhKyvNKlgKZjwEJfzNruO2PlwXjgVgNF/EujYWLHPkgEewNQIU0RloZxfFApnY+8zXImd+yVwIeAP/SAFq66ZYEymucgAdd2A93js30/vEF8Kj59yhXCw625Uwg5obhNmUnFilObkuHCH15jJqH0zZ8iFh2WesWEazipuJw3G9v/xG9OwzHK8LVoAYCtGBA9TTTf07qW+XddLNv9Ei9hIdkofPe7Z978Hg5GWHh8tZsP8dTXSYEjB+4ZqCu8+82etSlfFo7TiCNSYTzL/tFXW7eDkJcL3oA8SKZb6yboGR2PC7l2Mnj5AYLo2OdvavVNTYRIGIVQiuPIb1U5H1hKza9txjkBjm4pbvBVWFd85eAHzdEOank3KmULF++1vrwFGhqaQC36LFuRKROOzHq6o6lnFhTE5anGo68RPeMhLJqvFdrMKlsAr7mFiOFhp6PXbhmIvuBkiGj85eQUjfAb+66NJ/60trxxGbVqgMu33mKrEnB6cscqbzasbF3tbUyKUTgdFzZdoZBvHY5EptmQxlU1UWf46czarg+Fyh6dSvONkNC7CUo8IJSJ6Ajx+ZdXvXAuTacby6KAd8Hl+5mm7g2IJPVtQ0pEtltvAohYazRzm1fHXo4WlskMYnKJ+jxUW6cBZGpaW7q/nJBYZPBMYG3GcCdpu9m5CPYb8Hj+AuqLHFNeIITT2fUtCYZVMYHlk0nFK0lIulA2N4cig0fIIFO1kSBjV8iU6foPNvM8nooJGtb7j+5jteelwxlFiFcllEuNi6il5EgjzQHJqrlSRtI6nQniV7JMHiICBHzPmwGcHT6FVS1mx9WykIi6Tx7Eu688YJJ1AlrxuSTg+tvatSRgoM/tabmLG+Vf4bbnF7AQQVwWEBDxCCjexP7TlrxHE6IQMy+O9KXGGyGbX5yl4/9EDz8LE3f06e+myM2IdUlqOpDQPHXWxJFM4h5sqWMJzGCA/pmc7XG0dsoSCeZGCqODJfTGZVi0sClGEQR87VGYEOS4lZT2q8pvWfbXirzwiHhs64vwWcHE1F+ACRf2mmcGm6OJ/KG1tvlaqquH6yv5DJySeHc8iHoQM7tiVe9i68gMbifloGjTtwilEhzEb/AkCswpD21tecI01d9sB15JpgAEUhTEwJfBbwMssDUTQTi0U4jW/f5QkiNrBCWgVfI7ATlcCyMjCAxWNWddA4xpO0u4/Ww3sXp2CWVOhP/bP5zJTH1fpBk9jptTcMr5AReokhY81vDN9ezMhZBT2aq0DVaMOcY6BbLFbfcuGzaSYc4VfNe0jxkEErABbzE1CJdxhSpd6X5WvYAyyfHgG1qSRnarGf4EqxBxRAARRdyaLUgTXiCNRgtJTMO51CmZ0yr2EkDmK71B5fyAmJOZoRCRYSU9kIA9dFK1OaOhD4FVRIQn5N6BHgK3rYi4ymzHOAfAGzwsGCyWVUyetSHWQfdnL8MBXKk0/kFjStlvDeNeJoRCyWGoUgCevU6aT6VromLsy0vnAk/iqUtQApS+19FI2QL8J+ZhdoYYEmRymXpZREXoWwUyBUo01QdBZEDaLLKdEmvqWNfF7mUsvmKblIU6NU5MQpru/I14fuuD/fvRPe1kpoOkp0CZuJtaU14mjfDDIsckdbzOgJn0n1/Ph/h86d4rJJuv5WuvEw7dhL0QYSvYy281lamKOhC/Ta8/S704zlwe9BlcQKI8e4gWAOxQrU0k43v5+27aP2TvIFIMIpl6eFWRoaoFPH6PWjwbde7Z0YHPvEg8m+/Y46B23YrXF02+JUdYF0Ff5w2IyvDmZB5FDWzVGhp81b4mv0vE3f0xhIFh31DPyM+x97WHzzN4x5P/JXdPiDFAg5aG3QSzpJL/2MfvwoceB9lfG44zZfWgcRPsr+A/SJ/0hd25j1bkmoLZOiF5+mH30LZpbs8w089L/y0RZrMf231+OJlEeZYnJTWfXcMBsyVo+H+vzNtv3kUlWr0Neld5ggrJXe2UswvNufe0I88Rwb6oc/TXd9hIJh5ypQbyhCH7ifPvwAKTlwJeUh+GwDLyAf4hnRjDvor/+Benc5gIiXUBsauvuj9PH/QIIgZFI7Hvuv7ju05pZWtbhfC462YblmcJxv8mrTz75DviDd8B66/cMklFlhuVwunzftrBqVffB+uvNjTNwyvMonDbAWdB0HB+XnvkjRRnPzsiyn02l47VYyMXmH/5huuZN4UZgYajrxHGxY1x6v5aGNF2qrpDZjYKmu+JvHmMLwB+ju+xiBLCcYST/60Y+eeeaZQCBw3333HT58GESz0v5df0ZnT9H4MGVBpCaaVKDWOeYM//O/tYA4NDT06KOPXrlyZefOnQ888EBXV9dSbZKP7voonX7Fk1wMnzk2t/9mFWLUgc7LBr8qnlsLjkxEOqo3pzng0knp4mkOamT/TYwBTemb3/zml770pYVkEvT25JNPPvvss3v27Fl5HmukG2+jH3+H8hJTOCWizEAsKrTvAO241lzb4uLi5z//+aeeegpdQw9HR0e/8pWvRKPRpTItnXTz3fTU4/7xId/USKa3vxqMTCpkC242nLn1NVI4/GZOoGFbprxCjpPSSV86BbuE3v0+s0xMpVLHjh1jIKK/HLeQSBw5cqSsTvBj904KhZlEM7M2MzoV2rmHqWZTmpiY+H9PPsmMaY8Hoz99+vTFixdXnqOVQ7dCL0mphG92rEYpWXkn3Dr6NeIIK6HMFEN0t8zWJfYddim9KGWSrNm+ndbGAYiJsMHm1gKRBgo3sExzY+BrQaKGFio3m5mQXQ7k1d+wzXRrL/lChIVAcs7OUI6hp3mEW9eW1ogjDkzpATNLCVyX048gIzrU0i6vqfiwTLEsSiIYDN5zzz1Bv1+RZXy6Ozvvvfdea59FCXqWZZbgNtqEvPMHLRq/p6fnnrvvRigVakNXbrrpJkjJsgqBO95SVb6QMULXSk8hM+z74XgKNeCIr7WfICB7Vi05sKcQAQrXmTHrGJ2iCzA9eqbMuSIj0I6tV6wJ7Hz//fdj8D/4wQ+8Xu+nP/3p/fv3WwspsnWFZEhJez4RROEjjzyC2k6cOHHnnXdiVlaEY6neHKbbI3vDFlc8OoPdOWvr7EAoVp01JfsAa3oNhbLlLkiDYtAhGLRYq5Zqkf1B2ReAg5sGL9J1B821A7736qlik4l5SiXYBLGt6mXyhyMDG6oz4wxi0xY2mu7u7n7ooYfcasssUCAmByJ208eOV76g4ahIxdrKHzhMQqU3WQC7figDA8I3dnrPlCAwDfTi5lOmkJvhWAFiDnF1p47WKN2XagVMVy9TapHxr3mrGi4c5AxdhKSr1FXn/FMvgwyLwXAh3mqRCRiZxdmDFlJwlGNQUHL6DBrDd655Vfcq4MR4b1yMBj19jXxTWACOZusHEhlnidBMVA/rKSU5GM727dGwiH7zKE1crdQPh3ws6d54lbnNvQjgMz33aUxOnDlOk8MOb1XKSifohacho7MtnbnmTsuMBmyeHlSTzqiwn1qjAoa8o1nC8CvVjXy3Z5bXJIHb0+G9sde/u82HYyeYK5wnLxmrIE6DPhHVYQnXnD94uwL9k0zRL56wyjuXrr36HA28xXCE48ecwOL4ZDOFf3/U5W3rI4A4MaLxYuraQ2ARy1OcLbaWxzGAjAK/2f52AUO+ptWL4dvLlHIc3ncpDTcPrjIAhTcGmF2RypaZqWnIRQ1j1GLlvthMc/f84Y/BMaMcf1EBOpZta3t7UCPnT9O3/xsJXvJBS5WXwE+Y5YIo/e639JPHqWBbU1oqhLVw5hS98CQ0dS4cmrn5HkuQhQRXVXkTBlNj/xqKFEdk9SHbe1mWwz/88MNVijg9xuYuIqRwMBf7vMsbDaRwXMCj4ZwafLBJeSVWD/1O7rouODnou3rRc/kc+fzU1kmwaRwT/D2v/Iq+9T9I8DOnGWxt+xhYDhrx0bmTzCRq72WLTsdULNCp39AT/wfEKIeiw3/5T/mmdosXMizoJ+zK00JSSaSVve2+oH42vGpaI46oF9FRV+eVcJDHNRulZsDsAcGDA0B5RcuV72End1znnRvzDZ6jC2do5BK8BtTQVIYmdlHOnKSffo9efIoQVwdTIlRhmwENgrXhDYL7ffAC81qiLbgyzSscaKGBt1ltzx6h6fFiQ/Pon/1NYvcNliAOIIgOl0jBGAhWGdML2CDhrm1j4ZBVQUSBVfgfLdXh8MtvLmcbowKOApvXDsZ5wWReHcyWx6bgFGAm1fXM4w1Hf8KBYUUWfU8dO2j7HsJKZmKYBs8yJsUSENUBpgiMYNchQB7nEEGP/QmNIODwStdO6u4nr4+mxunyW8yVicVCMZ9r67368b9L9+yyqGnUjnN0iHS2NANNfWUs39soAUfXHqw8XDuOcOafn8xPp5XtHdigXJk0WOItuumD84KLRes6H1vyTadf6nn8YRKCzICCI9aYhFIMBaRCAOdaajXcGFXCp8vQZ8tMgmxFQn9A70geLXfNOy5+/D8XgzFrOJG+gRwRhfLrWNirE3NFfG6/BvusNREj2lm7HQ7Ri0teEBmAmABzPC7whQ0EJHv8nvOKhjBD85TCrb/Q/46eSJoEH+V1xoRRwyxS0KDu1AGC7mRorg7fIUNBufBIsllBVcvOTVgIqEfMzO+7sRCKe2zRvWgKd1ZYQER9OHc4syjj2oDy/VBLq9afa8cRNUX8nuYwPzFTCPsRA7A0dZBUiYKK4HAYQJ0Bbiht3YnVjCBHuCSNbSxjnVLrxFsHwH4DL58+W4wk9QKozagQZ7nA5k5J8HhwDMTyBIOYXcSZUa0jgstbVtGnVU29tTvQMO1RkcWeJVnYVCkhkNU4yBIRPe04+1GeNMtGSmnM1upX/xtVYUD4lDqjqbI36FgRONqipfETtg4u0WgOeppCVogdKyllrgtH1NIS5pvDwuhMER6gUrdAEwtFcLROFrZJVZiS0YXjpiQ5ELUwNXoUE+0MzQT14EQB+rklJuEY96p6t7rSjlXvgXHAcRDM5tMd6NNMQUUAHz42JMGGEZcYIMdW1pgJP1oQba0kdAaHiUGL9gpx5UIyo7RGhDUcx64Djrj+qr+Vx71DOI1k7hygTBQ1MA/6bel1MdxqH4Y1pxZnNAKgzDaXtQr2W8ZBElOCWGTLVhs3YI07PS/7JA5nsZ2qqZJXBxzRQmfM2xrmx2ccjvRD/4REAWuvssEEsFtQ2bKBbv3jv6FQvMoRmmKScHQrHneH0hyPaxg69tUL+jabkHEdxIF2ISg5kGoVFJ3WXFVfcSgAhdOlX5gxOu1wUhL9whY7/JKlDqb8DW6D14pXMhr97dfZvpgGiitHHASIHCzhb/qI/Kl/zBUqxtKxjmJLLsD0DJoGfI2Wu/v0oWCKccPQ1Ly8vUlsCK2FGFklelV1SI1Bvr9FwuG8iTkHKNFAWBJ8/NIhEcWH3Vcba5V64fG+/vT3VdDjX3yZ3v+X1Lmdxa7Au6HCaFcpEqe976ZP/hf6yIOXLpwrzF110GWlqoQQ6NGQiXGvM+IAEdenxIN8Ny7HWSseVqNkPYjiOrZsQbs4VUB3sF60VIXBYNdBlLlFmBdM9luXOivlPbwweOr555+/44476I4/p3e8j8YvU3KWsADHBktjF3XsZF+I/vWRr365yxkdVhsoN9hggAiZ6MiuWALijKvE0+5WIVSbS8IRIutoHQvVmImuwt+Jg6iD+pn2eJgvX8sw5oKnr5nTZG/Iyq3lbdzZ3/uuz33u+9///r59+6i5i31AiaBgmFHLltQXv/hF5fxR6j5QuXu4giLQggUPtJ1TIVwyNDJVgMV22w4pHKg8H07vWvLWSscVqgZf9LdKPY3i0Dg7gGs3HvEeCAMRPxUqWMqGBGjJzXzmM585evQo4kyYsxMOXUgyjsP27OTkJEDENv+9125zqwfTGGlFc44g4pqU0amCLGs39vrCgVr9EZWaqyc9Gm3A87KzRcLA4TLpbpXiYWsTTE8gVqJaevCdXR97+swnP/nJD33oQwcPHozH49gXm5mZGRsbQyjLK6+8siMWuK2zzDa0VYmld9yWyQgaV0qBElVF29fpxR6Jvcxqc+pQhb1J3B62qxVXE9LwJG7HYUF+ZgsSOHqCy+Ei9peXc27pCN3eHXthZP6x73zn29/9bjgYNHA0lk0ImnjoYHvlt40nWkpyABqMMjJdwA4WQGyP1OEyKTS2ITiiXkC5u80b9nreGs0VCuxuKRyPKolLn9/PwhtdE9Zmnz3Qfm42PYXNT45LZjL4YKMV5gt2Jj9xbfO9O5tdK4CekfO2nXOYEzBxsJ65aZsUgl/Mkeer1OvwuM7y0dwCGLwnLhzslbCzeG44h39Llg7HvI1VphAj/EBf7O9uwL2sULwrRhJ6fEdX+O/f1R3zVqkBQCoIRNETaoOXG9cmYP2K28Leg8s8Aoxj6pWqdmVdDcFf3xb1IhoPV0CeH861xJjzHEe2CzhYjf0Z2DHVhvLZA209Ed+/vT06m1Nxu02Y1/a2NXz2QGtfuCaDGYYBsAKCMBIn54rYkN7VAjUoYetqXQOzvbyxOBrN4d7KUJdvIiFfni3gxB7soRbAJ/kZjjWkP9kWu60jOJtXsOcDU6or4uwHc66psQULPlxGigtlWsIC+AMOMctujPOLq8zdDBzRJWwE9zaKWPMMTBXgZFvI5VoQVFJzX6NeEZ+ai68UnF7gR8QCtp73dYhtUcm8JbeG2lxe2SQc0QMwEu4XemePby6lnL8oKFKYzybKfK4u3VztI4hTJlHhHuG7G0VciLvRd7JvHo4lKOIh/lAXpyBCF55J7E9hZwYY10teGQgu+Ty5/f4EddQkSVc7U5byG6ivXXrGnTwmpOeWlIyBJtuicnmjhkd4HZWwjcPlOYFJcOSx6uEbNdRdtchW4IgQsv/7NX0jpRw5QLA2NEsI2okER7qef7oqCusvsLk4YiGG42rf/mdm/2PwoBv73TEGmnA5LnGo0xhLj1DMoEErgtjF1aPKxQA98Q06e1oP8lsnwTv1ZDlv7XEAbrWan8FvmErR/DTNjCFuT3njuOfyWQ7nhnG01b/soMUAzZH0lqrZbcTlyWnLZ6kECy5aLgyIEzwLWQlH6J23UPcO5jfCGUScPUEESzXT1dqo6++NxDGbobMnafA8XR2g8REGJU4M49YNOHsw1IiXvCaPL6LHEQGRSaxIN9d+Wx8Ca3iDsFWdT6/oLNQ5kdX9nIizKDJBieu+WjqouZ16r6Vde2lbv/NBMGvt1X9vJI5YTgM4MBQEIjsrPI2gLxq/yszvfe+i/AQd/SGDFQnLvlCMRenNTzA4DPpjzFtNixtiwSiFtWZDG00vu8eB2vbr6fq76PhrlEtTcwfFG6mhmRqbKRonOEp8PkK8fp2ociPtHiACDsIHvbckQPzyD8vygjHds6tDaODC/l3maDNnV8IWk4HVNCpZumwAcxOlA7fSTXdbW9+A35urZ0oDMNaFpdsVMHhA4OLcBXalTyUUEGQSNnkbUSfOrjudQqhUwXrytwhHdBnDNvMUdmLNOAKFQNRtT9EYdFkZhVCJOYFtLZG264HK9d0twhEI4vgrdgFLCR6gMhw1ine4WSoGp5vLgGBRifkGERa6V0kKuKKy+odbhCM6iqs+Sk5WnBdEGF/IdOALmIYaqt/PYS7DIvLNoRMqefWbBjYlbVIzDmMB08EFWXLQ+mAPQXfrZIZMkCo0eFXLOQYNVtJBCAQEcCUCxF/sw5UDmzTATWrGAUd21cdy62Bzf1iP0DUsc40a4swYrIoj6HHlGN6y8WQ0BgYHrJvE1vWLp3BAyj0LMIEklxJMaJy7XIYVaHoblkzLipXoiMOiWoJe3zqAnmHHIJaNJwSs1sk8rNiLlQFULbJBBTDCEnCgHfOYwdcwJ6smWDmWkFT42CEQDEbHd/D1ZhHk1vE1iJEdFNAHDaGGI9X4LCWNmOCrIQVMcBs2wFIUM/wUguUijBqqW3uRjVzPuPcKChofI0GQYYG4cuWTwpR1LSyJOCHzviObG9g6CDTAeQXguN4oCfcRmJ9uHT3igPrSrR7QzgDRZPRA5PljzG2BoL1SYmEY5uUhLHmB6SKm5fUEQJm+Xt7GwVPj6Id5uBv2fQtxxDVHhpMCpzMQMW6s4ZY9aUEDVhNwsNvxsSRQH4SsgS/oFxOD401GAnWv6DHre3X/vXU4ArjS6XSQlddfplvMgg+DBoXCddhjuiCF2ZhYWcKPqa8FATgIkwlZna/xAaybZYSj/a3DEYNcGifsZ7GMdsChgLUs4Y8ptVDfdSvQAEdcjwBi9C7fxAPgQODsp240Mr7ePOm/RTji9NpbR2n0sj6R8Hf5y1wMoCzL4SHgFWuj9u1lfwuA013CMOANvsZ3zAeuL0NhfKZG6PgvVn1nQPns1f5r02ZMI1xMk88wj/eFU3Ti5zT8Ovs7M8yE5Gj7DcyxaiSAgkxQlllfw1/b3Est3fi7PdaxGUQNxjc8FHveQ8efonyBXWb44nfp9C/p0J9S/zupsZvNFhi/FjPA2kb13xuPI+6knxmlhSkav0SDb9MIDrVmmZXjjzP+gy29bS+9+0Osp4hcNuQMRB47wW5ygiE+tWsXNbSyey7yy5fcQ6tAwjL5CBBxwWmBTdWO6+h9f0Fv/JrmZ0hG4Qw99116/t+obRdtP8BOw4Jg420sLrK0Cj3iyqMAAAKUSURBVKiOUvUSG4wjiAtjAxeDaho7GEEd+pOVToE0Ik3s6DD48eLrdOZ5ZrXA9wMjHCaL+RZB4BhvZ/KufTedf3XJoDGsxcY29gpexA0Ux39GN9xJ7/047bmFcGlU0XRVAGL02f0q+iWo7JBtnVc6G4wjkIJzHx9HbsJGzcQVeu0ZevtlnU6x7YVdfJWufz+7HbKUsAnRtG3JJ7b7EJ0/BkNp6SHYf/ct9Pqv2fU0SD/9n/TqEbrhg+xOzb79FS8JYKKjzg6MDcYRYzP3GISJLae5SbpwkobA42cIURWgDV63n2HHhBrplvvp0AcY/U5dXaIZrUh91y8Bh30+8C+P/SmcYbzCiP2ag3TfF+gX/0rzV9nm7fQwPf0vrDA2C9t2U+8e2n0Ts5kgfw1z1dKlpXrX+99G7hfa+4aLzmbH9c3VZQMbstJw2EAg+kPUvoMRUXKBLp2kI4+w+46AVzFN/+kxtlOKhL3c//4pVgOAVrLsdM3BDzB5hxmaGaHZiaU/0gfZZ14gQSBAqsByqjcZloa4uTjakTXnYKd0fpIuv0lnXqSB00yKAQ45S++4iz7xhRWL59iT9JOvLhk3WDj27Kf+g7TnZsI1cOU3dLq3Vt+nvwc4QvxNDtHZV+niSRo7y/4QHLgVRAqMAOL199C9D5YdO8AdFseO0M+/oasvfYcH7iIsByET9txGew5R397NtMCN+dg6HGEPDbxO516js7+i9BWScHeKcbYArhost/204yAduJ3ZMbZT+6zrUMev/Ywunyb8lQHAbfjfigkq6H/dY/eHad9h6r+Bqf4N42UzRW8djiBDhFqwGBUn1QlDx3bUwNzvle+gSsuxMeMZMiFDS7rF+eW65W4djnUbwu9FRf8foKJGfqBKmmMAAAAASUVORK5CYII=;" vertex="1" parent="1">
          <mxGeometry x="630.19" y="740" width="47.81" height="50" as="geometry" />
        </mxCell>
        <mxCell id="2tirW4YySyGKOFdSVdBK-57" value="Argo CD Applications" style="text;html=1;align=center;verticalAlign=middle;whiteSpace=wrap;rounded=0;" vertex="1" parent="1">
          <mxGeometry x="678" y="756" width="60" height="30" as="geometry" />
        </mxCell>
        <mxCell id="2tirW4YySyGKOFdSVdBK-58" value="" style="shape=document;whiteSpace=wrap;html=1;boundedLbl=1;" vertex="1" parent="1">
          <mxGeometry x="650" y="795" width="28" height="32" as="geometry" />
        </mxCell>
        <mxCell id="2tirW4YySyGKOFdSVdBK-59" value="" style="shape=document;whiteSpace=wrap;html=1;boundedLbl=1;" vertex="1" parent="1">
          <mxGeometry x="660" y="805" width="28" height="32" as="geometry" />
        </mxCell>
        <mxCell id="2tirW4YySyGKOFdSVdBK-60" value="" style="shape=document;whiteSpace=wrap;html=1;boundedLbl=1;" vertex="1" parent="1">
          <mxGeometry x="670" y="815" width="28" height="32" as="geometry" />
        </mxCell>
        <mxCell id="2tirW4YySyGKOFdSVdBK-61" value="" style="shape=document;whiteSpace=wrap;html=1;boundedLbl=1;" vertex="1" parent="1">
          <mxGeometry x="680" y="825" width="28" height="32" as="geometry" />
        </mxCell>
        <mxCell id="2tirW4YySyGKOFdSVdBK-62" value="" style="shape=document;whiteSpace=wrap;html=1;boundedLbl=1;" vertex="1" parent="1">
          <mxGeometry x="690" y="835" width="28" height="32" as="geometry" />
        </mxCell>
      </root>
    </mxGraphModel>
  </diagram>
</mxfile>
